<mxfile host="65bd71144e" pages="4">
    <diagram name="Schematic" id="Q4gtxbNg1hrQ4OglQbzv">
        <mxGraphModel dx="1811" dy="1688" grid="1" gridSize="10" guides="1" tooltips="1" connect="1" arrows="1" fold="1" page="1" pageScale="1" pageWidth="850" pageHeight="1100" math="0" shadow="0">
            <root>
                <mxCell id="glFcIbQFoDw9tONTokbF-0"/>
                <mxCell id="glFcIbQFoDw9tONTokbF-1" parent="glFcIbQFoDw9tONTokbF-0"/>
                <mxCell id="glFcIbQFoDw9tONTokbF-7" value="&lt;h1&gt;&lt;br&gt;&lt;/h1&gt;" style="pointerEvents=1;verticalLabelPosition=bottom;shadow=0;dashed=0;align=center;html=1;verticalAlign=top;shape=mxgraph.electrical.signal_sources.source;aspect=fixed;points=[[0.5,0,0],[1,0.5,0],[0.5,1,0],[0,0.5,0]];elSignalType=ac;strokeWidth=2;" parent="glFcIbQFoDw9tONTokbF-1" vertex="1">
                    <mxGeometry x="150" y="479.99999999999994" width="60" height="60" as="geometry"/>
                </mxCell>
                <mxCell id="glFcIbQFoDw9tONTokbF-8" value="" style="pointerEvents=1;verticalLabelPosition=bottom;shadow=0;dashed=0;align=center;html=1;verticalAlign=top;shape=mxgraph.electrical.signal_sources.source;aspect=fixed;points=[[0.5,0,0],[1,0.5,0],[0.5,1,0],[0,0.5,0]];elSignalType=ac;strokeWidth=2;" parent="glFcIbQFoDw9tONTokbF-1" vertex="1">
                    <mxGeometry x="150" y="660" width="60" height="60" as="geometry"/>
                </mxCell>
                <mxCell id="glFcIbQFoDw9tONTokbF-9" style="edgeStyle=orthogonalEdgeStyle;rounded=0;orthogonalLoop=1;jettySize=auto;html=1;exitX=0.5;exitY=0;exitDx=0;exitDy=0;exitPerimeter=0;entryX=0.5;entryY=1;entryDx=0;entryDy=0;entryPerimeter=0;endArrow=none;endFill=0;strokeWidth=2;" parent="glFcIbQFoDw9tONTokbF-1" source="glFcIbQFoDw9tONTokbF-8" target="glFcIbQFoDw9tONTokbF-7" edge="1">
                    <mxGeometry relative="1" as="geometry">
                        <Array as="points">
                            <mxPoint x="180" y="629.55"/>
                        </Array>
                    </mxGeometry>
                </mxCell>
                <mxCell id="glFcIbQFoDw9tONTokbF-10" value="" style="pointerEvents=1;verticalLabelPosition=bottom;shadow=0;dashed=0;align=center;html=1;verticalAlign=top;shape=mxgraph.electrical.inductors.inductor_3;rotation=-240;strokeWidth=2;" parent="glFcIbQFoDw9tONTokbF-1" vertex="1">
                    <mxGeometry x="410" y="601.55" width="350" height="28" as="geometry"/>
                </mxCell>
                <mxCell id="glFcIbQFoDw9tONTokbF-11" style="edgeStyle=orthogonalEdgeStyle;rounded=0;orthogonalLoop=1;jettySize=auto;html=1;exitX=0.5;exitY=0;exitDx=0;exitDy=0;exitPerimeter=0;entryX=0;entryY=1;entryDx=0;entryDy=0;entryPerimeter=0;endArrow=none;endFill=0;strokeWidth=2;" parent="glFcIbQFoDw9tONTokbF-1" source="glFcIbQFoDw9tONTokbF-7" target="glFcIbQFoDw9tONTokbF-10" edge="1">
                    <mxGeometry relative="1" as="geometry">
                        <Array as="points">
                            <mxPoint x="180" y="440"/>
                            <mxPoint x="660" y="440"/>
                        </Array>
                    </mxGeometry>
                </mxCell>
                <mxCell id="glFcIbQFoDw9tONTokbF-12" style="edgeStyle=orthogonalEdgeStyle;rounded=0;orthogonalLoop=1;jettySize=auto;html=1;exitX=0.5;exitY=1;exitDx=0;exitDy=0;exitPerimeter=0;entryX=1;entryY=1;entryDx=0;entryDy=0;entryPerimeter=0;endArrow=none;endFill=0;strokeWidth=2;" parent="glFcIbQFoDw9tONTokbF-1" source="glFcIbQFoDw9tONTokbF-8" target="glFcIbQFoDw9tONTokbF-10" edge="1">
                    <mxGeometry relative="1" as="geometry">
                        <mxPoint x="185" y="713.55" as="sourcePoint"/>
                        <mxPoint x="665.3756443470179" y="772.1044456622768" as="targetPoint"/>
                        <Array as="points">
                            <mxPoint x="180" y="760"/>
                            <mxPoint x="485" y="760"/>
                        </Array>
                    </mxGeometry>
                </mxCell>
                <mxCell id="glFcIbQFoDw9tONTokbF-13" style="edgeStyle=orthogonalEdgeStyle;rounded=0;orthogonalLoop=1;jettySize=auto;html=1;exitX=1;exitY=0.5;exitDx=0;exitDy=0;exitPerimeter=0;endArrow=none;endFill=0;strokeWidth=2;" parent="glFcIbQFoDw9tONTokbF-1" source="glFcIbQFoDw9tONTokbF-14" edge="1">
                    <mxGeometry relative="1" as="geometry">
                        <mxPoint x="180" y="600" as="targetPoint"/>
                        <Array as="points">
                            <mxPoint x="50" y="600"/>
                        </Array>
                    </mxGeometry>
                </mxCell>
                <mxCell id="glFcIbQFoDw9tONTokbF-14" value="" style="pointerEvents=1;verticalLabelPosition=bottom;shadow=0;dashed=0;align=center;html=1;verticalAlign=top;shape=mxgraph.electrical.resistors.resistor_2;rotation=90;strokeWidth=2;" parent="glFcIbQFoDw9tONTokbF-1" vertex="1">
                    <mxGeometry y="499.54999999999995" width="100" height="20" as="geometry"/>
                </mxCell>
                <mxCell id="glFcIbQFoDw9tONTokbF-15" style="edgeStyle=orthogonalEdgeStyle;rounded=0;orthogonalLoop=1;jettySize=auto;html=1;exitX=0.62;exitY=0;exitDx=0;exitDy=0;exitPerimeter=0;endArrow=none;endFill=0;strokeWidth=2;" parent="glFcIbQFoDw9tONTokbF-1" source="glFcIbQFoDw9tONTokbF-16" edge="1">
                    <mxGeometry relative="1" as="geometry">
                        <mxPoint x="50" y="400" as="targetPoint"/>
                        <Array as="points">
                            <mxPoint x="-150" y="400"/>
                        </Array>
                    </mxGeometry>
                </mxCell>
                <mxCell id="glFcIbQFoDw9tONTokbF-16" value="" style="pointerEvents=1;verticalLabelPosition=bottom;shadow=0;dashed=0;align=center;html=1;verticalAlign=top;shape=mxgraph.electrical.miscellaneous.chassis;strokeWidth=2;" parent="glFcIbQFoDw9tONTokbF-1" vertex="1">
                    <mxGeometry x="-190" y="492.99999999999994" width="65" height="32" as="geometry"/>
                </mxCell>
                <mxCell id="glFcIbQFoDw9tONTokbF-17" value="&lt;h1&gt;V&lt;sub&gt;DB&lt;/sub&gt;&lt;/h1&gt;" style="text;strokeColor=none;align=center;fillColor=none;html=1;verticalAlign=middle;whiteSpace=wrap;rounded=0;" parent="glFcIbQFoDw9tONTokbF-1" vertex="1">
                    <mxGeometry x="210" y="494.99999999999994" width="60" height="30" as="geometry"/>
                </mxCell>
                <mxCell id="glFcIbQFoDw9tONTokbF-18" value="&lt;h1&gt;V&lt;sub&gt;DB&lt;/sub&gt;&lt;/h1&gt;" style="text;strokeColor=none;align=center;fillColor=none;html=1;verticalAlign=middle;whiteSpace=wrap;rounded=0;" parent="glFcIbQFoDw9tONTokbF-1" vertex="1">
                    <mxGeometry x="210" y="675" width="60" height="30" as="geometry"/>
                </mxCell>
                <mxCell id="glFcIbQFoDw9tONTokbF-19" value="&lt;h1&gt;&lt;br&gt;&lt;/h1&gt;" style="pointerEvents=1;verticalLabelPosition=bottom;shadow=0;dashed=0;align=center;html=1;verticalAlign=top;shape=mxgraph.electrical.signal_sources.source;aspect=fixed;points=[[0.5,0,0],[1,0.5,0],[0.5,1,0],[0,0.5,0]];elSignalType=ac;strokeWidth=2;" parent="glFcIbQFoDw9tONTokbF-1" vertex="1">
                    <mxGeometry x="150" y="80" width="60" height="60" as="geometry"/>
                </mxCell>
                <mxCell id="glFcIbQFoDw9tONTokbF-20" value="" style="pointerEvents=1;verticalLabelPosition=bottom;shadow=0;dashed=0;align=center;html=1;verticalAlign=top;shape=mxgraph.electrical.signal_sources.source;aspect=fixed;points=[[0.5,0,0],[1,0.5,0],[0.5,1,0],[0,0.5,0]];elSignalType=ac;strokeWidth=2;" parent="glFcIbQFoDw9tONTokbF-1" vertex="1">
                    <mxGeometry x="150" y="260" width="60" height="60" as="geometry"/>
                </mxCell>
                <mxCell id="glFcIbQFoDw9tONTokbF-21" style="edgeStyle=orthogonalEdgeStyle;rounded=0;orthogonalLoop=1;jettySize=auto;html=1;exitX=0.5;exitY=0;exitDx=0;exitDy=0;exitPerimeter=0;entryX=0.5;entryY=1;entryDx=0;entryDy=0;entryPerimeter=0;endArrow=none;endFill=0;strokeWidth=2;" parent="glFcIbQFoDw9tONTokbF-1" source="glFcIbQFoDw9tONTokbF-20" target="glFcIbQFoDw9tONTokbF-19" edge="1">
                    <mxGeometry relative="1" as="geometry">
                        <Array as="points">
                            <mxPoint x="180" y="200"/>
                        </Array>
                    </mxGeometry>
                </mxCell>
                <mxCell id="glFcIbQFoDw9tONTokbF-22" value="" style="pointerEvents=1;verticalLabelPosition=bottom;shadow=0;dashed=0;align=center;html=1;verticalAlign=top;shape=mxgraph.electrical.inductors.inductor_3;rotation=60;strokeWidth=2;" parent="glFcIbQFoDw9tONTokbF-1" vertex="1">
                    <mxGeometry x="410" y="170" width="350" height="28" as="geometry"/>
                </mxCell>
                <mxCell id="glFcIbQFoDw9tONTokbF-23" style="edgeStyle=orthogonalEdgeStyle;rounded=0;orthogonalLoop=1;jettySize=auto;html=1;exitX=0.5;exitY=0;exitDx=0;exitDy=0;exitPerimeter=0;entryX=0;entryY=1;entryDx=0;entryDy=0;entryPerimeter=0;endArrow=none;endFill=0;strokeWidth=2;" parent="glFcIbQFoDw9tONTokbF-1" source="glFcIbQFoDw9tONTokbF-19" target="glFcIbQFoDw9tONTokbF-22" edge="1">
                    <mxGeometry relative="1" as="geometry">
                        <Array as="points">
                            <mxPoint x="180" y="40"/>
                            <mxPoint x="348" y="40"/>
                        </Array>
                    </mxGeometry>
                </mxCell>
                <mxCell id="glFcIbQFoDw9tONTokbF-24" style="edgeStyle=orthogonalEdgeStyle;rounded=0;orthogonalLoop=1;jettySize=auto;html=1;exitX=0.5;exitY=1;exitDx=0;exitDy=0;exitPerimeter=0;entryX=1;entryY=1;entryDx=0;entryDy=0;entryPerimeter=0;endArrow=none;endFill=0;strokeWidth=2;" parent="glFcIbQFoDw9tONTokbF-1" source="glFcIbQFoDw9tONTokbF-20" target="glFcIbQFoDw9tONTokbF-22" edge="1">
                    <mxGeometry relative="1" as="geometry">
                        <mxPoint x="185" y="284" as="sourcePoint"/>
                        <mxPoint x="665.3756443470179" y="342.5544456622768" as="targetPoint"/>
                        <Array as="points">
                            <mxPoint x="180" y="360"/>
                            <mxPoint x="660" y="360"/>
                        </Array>
                    </mxGeometry>
                </mxCell>
                <mxCell id="glFcIbQFoDw9tONTokbF-25" style="edgeStyle=orthogonalEdgeStyle;rounded=0;orthogonalLoop=1;jettySize=auto;html=1;exitX=1;exitY=0.5;exitDx=0;exitDy=0;exitPerimeter=0;endArrow=none;endFill=0;strokeWidth=2;" parent="glFcIbQFoDw9tONTokbF-1" source="glFcIbQFoDw9tONTokbF-26" edge="1">
                    <mxGeometry relative="1" as="geometry">
                        <mxPoint x="180" y="199.9999999999999" as="targetPoint"/>
                        <Array as="points">
                            <mxPoint x="50" y="200"/>
                        </Array>
                    </mxGeometry>
                </mxCell>
                <mxCell id="glFcIbQFoDw9tONTokbF-26" value="" style="pointerEvents=1;verticalLabelPosition=bottom;shadow=0;dashed=0;align=center;html=1;verticalAlign=top;shape=mxgraph.electrical.resistors.resistor_2;rotation=-90;strokeWidth=2;" parent="glFcIbQFoDw9tONTokbF-1" vertex="1">
                    <mxGeometry y="280" width="100" height="20" as="geometry"/>
                </mxCell>
                <mxCell id="glFcIbQFoDw9tONTokbF-27" value="&lt;h1&gt;V&lt;sub&gt;DA&lt;/sub&gt;&lt;/h1&gt;" style="text;strokeColor=none;align=center;fillColor=none;html=1;verticalAlign=middle;whiteSpace=wrap;rounded=0;" parent="glFcIbQFoDw9tONTokbF-1" vertex="1">
                    <mxGeometry x="210" y="95" width="60" height="30" as="geometry"/>
                </mxCell>
                <mxCell id="glFcIbQFoDw9tONTokbF-28" value="&lt;h1&gt;V&lt;sub&gt;DA&lt;/sub&gt;&lt;/h1&gt;" style="text;strokeColor=none;align=center;fillColor=none;html=1;verticalAlign=middle;whiteSpace=wrap;rounded=0;" parent="glFcIbQFoDw9tONTokbF-1" vertex="1">
                    <mxGeometry x="210" y="275" width="60" height="30" as="geometry"/>
                </mxCell>
                <mxCell id="glFcIbQFoDw9tONTokbF-29" style="edgeStyle=orthogonalEdgeStyle;rounded=0;orthogonalLoop=1;jettySize=auto;html=1;exitX=0;exitY=0.5;exitDx=0;exitDy=0;exitPerimeter=0;entryX=0;entryY=0.5;entryDx=0;entryDy=0;entryPerimeter=0;endArrow=none;endFill=0;strokeWidth=2;" parent="glFcIbQFoDw9tONTokbF-1" source="glFcIbQFoDw9tONTokbF-14" target="glFcIbQFoDw9tONTokbF-26" edge="1">
                    <mxGeometry relative="1" as="geometry"/>
                </mxCell>
                <mxCell id="glFcIbQFoDw9tONTokbF-30" value="&lt;h1&gt;V&lt;sub&gt;RA&lt;/sub&gt;&lt;/h1&gt;" style="text;strokeColor=none;align=center;fillColor=none;html=1;verticalAlign=middle;whiteSpace=wrap;rounded=0;" parent="glFcIbQFoDw9tONTokbF-1" vertex="1">
                    <mxGeometry x="-20" y="275" width="60" height="30" as="geometry"/>
                </mxCell>
                <mxCell id="glFcIbQFoDw9tONTokbF-31" value="&lt;h1&gt;V&lt;sub&gt;RB&lt;/sub&gt;&lt;/h1&gt;" style="text;strokeColor=none;align=center;fillColor=none;html=1;verticalAlign=middle;whiteSpace=wrap;rounded=0;" parent="glFcIbQFoDw9tONTokbF-1" vertex="1">
                    <mxGeometry x="-20" y="499.54999999999995" width="60" height="30" as="geometry"/>
                </mxCell>
                <mxCell id="glFcIbQFoDw9tONTokbF-32" value="&lt;h2&gt;+&lt;/h2&gt;" style="text;strokeColor=none;align=center;fillColor=none;html=1;verticalAlign=middle;whiteSpace=wrap;rounded=0;" parent="glFcIbQFoDw9tONTokbF-1" vertex="1">
                    <mxGeometry x="160" y="240" width="20" height="20" as="geometry"/>
                </mxCell>
                <mxCell id="glFcIbQFoDw9tONTokbF-33" value="&lt;h2&gt;-&lt;/h2&gt;" style="text;strokeColor=none;align=center;fillColor=none;html=1;verticalAlign=middle;whiteSpace=wrap;rounded=0;" parent="glFcIbQFoDw9tONTokbF-1" vertex="1">
                    <mxGeometry x="160" y="140" width="20" height="20" as="geometry"/>
                </mxCell>
                <mxCell id="glFcIbQFoDw9tONTokbF-34" value="&lt;h2&gt;+&lt;/h2&gt;" style="text;strokeColor=none;align=center;fillColor=none;html=1;verticalAlign=middle;whiteSpace=wrap;rounded=0;" parent="glFcIbQFoDw9tONTokbF-1" vertex="1">
                    <mxGeometry x="160" y="60" width="20" height="20" as="geometry"/>
                </mxCell>
                <mxCell id="glFcIbQFoDw9tONTokbF-35" value="&lt;h2&gt;-&lt;/h2&gt;" style="text;strokeColor=none;align=center;fillColor=none;html=1;verticalAlign=middle;whiteSpace=wrap;rounded=0;" parent="glFcIbQFoDw9tONTokbF-1" vertex="1">
                    <mxGeometry x="160" y="320" width="20" height="20" as="geometry"/>
                </mxCell>
                <mxCell id="glFcIbQFoDw9tONTokbF-36" value="&lt;h2&gt;+&lt;/h2&gt;" style="text;strokeColor=none;align=center;fillColor=none;html=1;verticalAlign=middle;whiteSpace=wrap;rounded=0;" parent="glFcIbQFoDw9tONTokbF-1" vertex="1">
                    <mxGeometry x="30" y="240" width="20" height="20" as="geometry"/>
                </mxCell>
                <mxCell id="glFcIbQFoDw9tONTokbF-37" value="&lt;h2&gt;-&lt;/h2&gt;" style="text;strokeColor=none;align=center;fillColor=none;html=1;verticalAlign=middle;whiteSpace=wrap;rounded=0;" parent="glFcIbQFoDw9tONTokbF-1" vertex="1">
                    <mxGeometry x="30" y="320" width="20" height="20" as="geometry"/>
                </mxCell>
                <mxCell id="glFcIbQFoDw9tONTokbF-38" value="&lt;h2&gt;+&lt;/h2&gt;" style="text;strokeColor=none;align=center;fillColor=none;html=1;verticalAlign=middle;whiteSpace=wrap;rounded=0;" parent="glFcIbQFoDw9tONTokbF-1" vertex="1">
                    <mxGeometry x="30" y="540" width="20" height="20" as="geometry"/>
                </mxCell>
                <mxCell id="glFcIbQFoDw9tONTokbF-39" value="&lt;h2&gt;-&lt;/h2&gt;" style="text;strokeColor=none;align=center;fillColor=none;html=1;verticalAlign=middle;whiteSpace=wrap;rounded=0;" parent="glFcIbQFoDw9tONTokbF-1" vertex="1">
                    <mxGeometry x="30" y="460" width="20" height="20" as="geometry"/>
                </mxCell>
                <mxCell id="glFcIbQFoDw9tONTokbF-40" value="&lt;h2&gt;+&lt;/h2&gt;" style="text;strokeColor=none;align=center;fillColor=none;html=1;verticalAlign=middle;whiteSpace=wrap;rounded=0;" parent="glFcIbQFoDw9tONTokbF-1" vertex="1">
                    <mxGeometry x="160" y="540" width="20" height="20" as="geometry"/>
                </mxCell>
                <mxCell id="glFcIbQFoDw9tONTokbF-41" value="&lt;h2&gt;-&lt;/h2&gt;" style="text;strokeColor=none;align=center;fillColor=none;html=1;verticalAlign=middle;whiteSpace=wrap;rounded=0;" parent="glFcIbQFoDw9tONTokbF-1" vertex="1">
                    <mxGeometry x="160" y="460" width="20" height="20" as="geometry"/>
                </mxCell>
                <mxCell id="glFcIbQFoDw9tONTokbF-42" value="&lt;h2&gt;+&lt;/h2&gt;" style="text;strokeColor=none;align=center;fillColor=none;html=1;verticalAlign=middle;whiteSpace=wrap;rounded=0;" parent="glFcIbQFoDw9tONTokbF-1" vertex="1">
                    <mxGeometry x="160" y="720" width="20" height="20" as="geometry"/>
                </mxCell>
                <mxCell id="glFcIbQFoDw9tONTokbF-43" value="&lt;h2&gt;-&lt;/h2&gt;" style="text;strokeColor=none;align=center;fillColor=none;html=1;verticalAlign=middle;whiteSpace=wrap;rounded=0;" parent="glFcIbQFoDw9tONTokbF-1" vertex="1">
                    <mxGeometry x="160" y="640" width="20" height="20" as="geometry"/>
                </mxCell>
                <mxCell id="glFcIbQFoDw9tONTokbF-44" value="&lt;h1&gt;G&lt;/h1&gt;" style="text;strokeColor=none;align=center;fillColor=none;html=1;verticalAlign=middle;whiteSpace=wrap;rounded=0;" parent="glFcIbQFoDw9tONTokbF-1" vertex="1">
                    <mxGeometry x="-210" y="465.44999999999993" width="60" height="30" as="geometry"/>
                </mxCell>
                <mxCell id="glFcIbQFoDw9tONTokbF-45" value="&lt;p&gt;&lt;font style=&quot;font-size: 20px;&quot;&gt;V&lt;sub&gt;A-NA&lt;/sub&gt;&lt;/font&gt;&lt;/p&gt;" style="verticalLabelPosition=middle;shadow=0;dashed=0;align=center;html=1;verticalAlign=middle;strokeWidth=1;shape=ellipse;aspect=fixed;fontSize=50;movableLabel=1;" parent="glFcIbQFoDw9tONTokbF-1" vertex="1">
                    <mxGeometry x="650" y="154" width="60" height="60" as="geometry">
                        <mxPoint y="-13" as="offset"/>
                    </mxGeometry>
                </mxCell>
                <mxCell id="glFcIbQFoDw9tONTokbF-46" value="&lt;h2&gt;+&lt;/h2&gt;" style="text;strokeColor=none;align=center;fillColor=none;html=1;verticalAlign=middle;whiteSpace=wrap;rounded=0;" parent="glFcIbQFoDw9tONTokbF-1" vertex="1">
                    <mxGeometry x="510" y="70" width="20" height="20" as="geometry"/>
                </mxCell>
                <mxCell id="glFcIbQFoDw9tONTokbF-47" value="&lt;h2&gt;-&lt;/h2&gt;" style="text;strokeColor=none;align=center;fillColor=none;html=1;verticalAlign=middle;whiteSpace=wrap;rounded=0;" parent="glFcIbQFoDw9tONTokbF-1" vertex="1">
                    <mxGeometry x="630" y="280" width="20" height="20" as="geometry"/>
                </mxCell>
                <mxCell id="glFcIbQFoDw9tONTokbF-48" value="&lt;h2&gt;+&lt;/h2&gt;" style="text;strokeColor=none;align=center;fillColor=none;html=1;verticalAlign=middle;whiteSpace=wrap;rounded=0;" parent="glFcIbQFoDw9tONTokbF-1" vertex="1">
                    <mxGeometry x="510" y="710" width="20" height="20" as="geometry"/>
                </mxCell>
                <mxCell id="glFcIbQFoDw9tONTokbF-49" value="&lt;h2&gt;-&lt;/h2&gt;" style="text;strokeColor=none;align=center;fillColor=none;html=1;verticalAlign=middle;whiteSpace=wrap;rounded=0;" parent="glFcIbQFoDw9tONTokbF-1" vertex="1">
                    <mxGeometry x="630" y="498.55" width="20" height="20" as="geometry"/>
                </mxCell>
                <mxCell id="glFcIbQFoDw9tONTokbF-50" style="edgeStyle=orthogonalEdgeStyle;rounded=0;orthogonalLoop=1;jettySize=auto;html=1;entryX=0;entryY=1;entryDx=0;entryDy=0;entryPerimeter=0;dashed=1;" parent="glFcIbQFoDw9tONTokbF-1" source="glFcIbQFoDw9tONTokbF-45" target="glFcIbQFoDw9tONTokbF-22" edge="1">
                    <mxGeometry relative="1" as="geometry">
                        <Array as="points">
                            <mxPoint x="680" y="40"/>
                            <mxPoint x="485" y="40"/>
                        </Array>
                    </mxGeometry>
                </mxCell>
                <mxCell id="glFcIbQFoDw9tONTokbF-51" style="edgeStyle=orthogonalEdgeStyle;rounded=0;orthogonalLoop=1;jettySize=auto;html=1;exitX=0.5;exitY=1;exitDx=0;exitDy=0;dashed=1;" parent="glFcIbQFoDw9tONTokbF-1" source="glFcIbQFoDw9tONTokbF-45" edge="1">
                    <mxGeometry relative="1" as="geometry">
                        <mxPoint x="660" y="360" as="targetPoint"/>
                        <Array as="points">
                            <mxPoint x="680" y="360"/>
                        </Array>
                    </mxGeometry>
                </mxCell>
                <mxCell id="glFcIbQFoDw9tONTokbF-52" style="edgeStyle=orthogonalEdgeStyle;rounded=0;orthogonalLoop=1;jettySize=auto;html=1;exitX=0.5;exitY=0;exitDx=0;exitDy=0;entryX=0;entryY=1;entryDx=0;entryDy=0;entryPerimeter=0;dashed=1;" parent="glFcIbQFoDw9tONTokbF-1" source="glFcIbQFoDw9tONTokbF-56" target="glFcIbQFoDw9tONTokbF-22" edge="1">
                    <mxGeometry relative="1" as="geometry">
                        <mxPoint x="760" y="370" as="sourcePoint"/>
                        <Array as="points">
                            <mxPoint x="840" y="39"/>
                        </Array>
                    </mxGeometry>
                </mxCell>
                <mxCell id="glFcIbQFoDw9tONTokbF-53" style="edgeStyle=orthogonalEdgeStyle;rounded=0;orthogonalLoop=1;jettySize=auto;html=1;exitX=0.5;exitY=1;exitDx=0;exitDy=0;entryX=1;entryY=1;entryDx=0;entryDy=0;entryPerimeter=0;dashed=1;" parent="glFcIbQFoDw9tONTokbF-1" source="glFcIbQFoDw9tONTokbF-56" target="glFcIbQFoDw9tONTokbF-10" edge="1">
                    <mxGeometry relative="1" as="geometry">
                        <mxPoint x="760" y="430" as="sourcePoint"/>
                        <Array as="points">
                            <mxPoint x="840" y="760"/>
                        </Array>
                    </mxGeometry>
                </mxCell>
                <mxCell id="glFcIbQFoDw9tONTokbF-54" style="edgeStyle=orthogonalEdgeStyle;rounded=0;orthogonalLoop=1;jettySize=auto;html=1;exitX=0.5;exitY=1;exitDx=0;exitDy=0;dashed=1;" parent="glFcIbQFoDw9tONTokbF-1" edge="1">
                    <mxGeometry relative="1" as="geometry">
                        <mxPoint x="-149.57142857142844" y="400" as="targetPoint"/>
                        <mxPoint x="-150" y="220" as="sourcePoint"/>
                        <Array as="points">
                            <mxPoint x="-150" y="310"/>
                        </Array>
                    </mxGeometry>
                </mxCell>
                <mxCell id="glFcIbQFoDw9tONTokbF-55" style="edgeStyle=orthogonalEdgeStyle;rounded=0;orthogonalLoop=1;jettySize=auto;html=1;exitX=0.5;exitY=0;exitDx=0;exitDy=0;entryX=0;entryY=1;entryDx=0;entryDy=0;entryPerimeter=0;dashed=1;" parent="glFcIbQFoDw9tONTokbF-1" target="glFcIbQFoDw9tONTokbF-22" edge="1">
                    <mxGeometry relative="1" as="geometry">
                        <mxPoint x="-150" y="160" as="sourcePoint"/>
                        <Array as="points">
                            <mxPoint x="-150" y="-40"/>
                            <mxPoint x="485" y="-40"/>
                        </Array>
                    </mxGeometry>
                </mxCell>
                <mxCell id="glFcIbQFoDw9tONTokbF-56" value="&lt;p&gt;&lt;font style=&quot;font-size: 20px;&quot;&gt;V&lt;sub&gt;A-B&lt;/sub&gt;&lt;/font&gt;&lt;/p&gt;" style="verticalLabelPosition=middle;shadow=0;dashed=0;align=center;html=1;verticalAlign=middle;strokeWidth=1;shape=ellipse;aspect=fixed;fontSize=50;movableLabel=1;" parent="glFcIbQFoDw9tONTokbF-1" vertex="1">
                    <mxGeometry x="810" y="370" width="60" height="60" as="geometry">
                        <mxPoint y="-13" as="offset"/>
                    </mxGeometry>
                </mxCell>
                <mxCell id="glFcIbQFoDw9tONTokbF-57" value="&lt;p&gt;&lt;font style=&quot;font-size: 20px;&quot;&gt;V&lt;sub&gt;A-G&lt;/sub&gt;&lt;/font&gt;&lt;/p&gt;" style="verticalLabelPosition=middle;shadow=0;dashed=0;align=center;html=1;verticalAlign=middle;strokeWidth=1;shape=ellipse;aspect=fixed;fontSize=50;movableLabel=1;" parent="glFcIbQFoDw9tONTokbF-1" vertex="1">
                    <mxGeometry x="-180" y="160" width="60" height="60" as="geometry">
                        <mxPoint y="-13" as="offset"/>
                    </mxGeometry>
                </mxCell>
                <mxCell id="glFcIbQFoDw9tONTokbF-58" value="&lt;h2&gt;+&lt;/h2&gt;" style="text;strokeColor=none;align=center;fillColor=none;html=1;verticalAlign=middle;whiteSpace=wrap;rounded=0;" parent="glFcIbQFoDw9tONTokbF-1" vertex="1">
                    <mxGeometry x="660" y="134" width="20" height="20" as="geometry"/>
                </mxCell>
                <mxCell id="glFcIbQFoDw9tONTokbF-59" value="&lt;h2&gt;-&lt;/h2&gt;" style="text;strokeColor=none;align=center;fillColor=none;html=1;verticalAlign=middle;whiteSpace=wrap;rounded=0;" parent="glFcIbQFoDw9tONTokbF-1" vertex="1">
                    <mxGeometry x="660" y="214" width="20" height="20" as="geometry"/>
                </mxCell>
                <mxCell id="glFcIbQFoDw9tONTokbF-60" value="&lt;h2&gt;-&lt;/h2&gt;" style="text;strokeColor=none;align=center;fillColor=none;html=1;verticalAlign=middle;whiteSpace=wrap;rounded=0;" parent="glFcIbQFoDw9tONTokbF-1" vertex="1">
                    <mxGeometry x="820" y="430" width="20" height="20" as="geometry"/>
                </mxCell>
                <mxCell id="glFcIbQFoDw9tONTokbF-61" value="&lt;h2&gt;-&lt;/h2&gt;" style="text;strokeColor=none;align=center;fillColor=none;html=1;verticalAlign=middle;whiteSpace=wrap;rounded=0;" parent="glFcIbQFoDw9tONTokbF-1" vertex="1">
                    <mxGeometry x="-170" y="220" width="20" height="20" as="geometry"/>
                </mxCell>
                <mxCell id="glFcIbQFoDw9tONTokbF-62" value="&lt;h2&gt;+&lt;/h2&gt;" style="text;strokeColor=none;align=center;fillColor=none;html=1;verticalAlign=middle;whiteSpace=wrap;rounded=0;" parent="glFcIbQFoDw9tONTokbF-1" vertex="1">
                    <mxGeometry x="-170" y="140" width="20" height="20" as="geometry"/>
                </mxCell>
                <mxCell id="glFcIbQFoDw9tONTokbF-63" value="&lt;h2&gt;+&lt;/h2&gt;" style="text;strokeColor=none;align=center;fillColor=none;html=1;verticalAlign=middle;whiteSpace=wrap;rounded=0;" parent="glFcIbQFoDw9tONTokbF-1" vertex="1">
                    <mxGeometry x="820" y="350" width="20" height="20" as="geometry"/>
                </mxCell>
            </root>
        </mxGraphModel>
    </diagram>
    <diagram name="KVLs" id="nWo5QTadJWqBBn1QuSIA">
        <mxGraphModel dx="1891" dy="1738" grid="1" gridSize="10" guides="1" tooltips="1" connect="1" arrows="1" fold="1" page="1" pageScale="1" pageWidth="850" pageHeight="1100" math="0" shadow="0">
            <root>
                <mxCell id="YnWthHs3vj5_45dDq-pV-0"/>
                <mxCell id="YnWthHs3vj5_45dDq-pV-1" parent="YnWthHs3vj5_45dDq-pV-0"/>
                <mxCell id="gAaMG0DozR-4z9io2g_K-0" value="&lt;h1&gt;X&lt;/h1&gt;" style="text;strokeColor=none;align=center;fillColor=none;html=1;verticalAlign=middle;whiteSpace=wrap;rounded=0;fontColor=#FF3333;" parent="YnWthHs3vj5_45dDq-pV-1" vertex="1">
                    <mxGeometry x="30" y="-30" width="20" height="20" as="geometry"/>
                </mxCell>
                <mxCell id="gAaMG0DozR-4z9io2g_K-1" value="" style="edgeStyle=orthogonalEdgeStyle;orthogonalLoop=1;jettySize=auto;html=1;rounded=0;exitX=0;exitY=0.5;exitDx=0;exitDy=0;strokeColor=#FF0000;strokeWidth=2;" parent="YnWthHs3vj5_45dDq-pV-1" source="gAaMG0DozR-4z9io2g_K-0" edge="1">
                    <mxGeometry width="80" relative="1" as="geometry">
                        <mxPoint x="-80" y="-31.110000000000014" as="sourcePoint"/>
                        <mxPoint x="60" y="-20" as="targetPoint"/>
                        <Array as="points">
                            <mxPoint x="-110" y="-20"/>
                            <mxPoint x="-110" y="380"/>
                            <mxPoint x="70" y="380"/>
                            <mxPoint x="70" y="220"/>
                            <mxPoint x="140" y="220"/>
                            <mxPoint x="140" y="30"/>
                            <mxPoint x="470" y="30"/>
                            <mxPoint x="470" y="-20"/>
                        </Array>
                    </mxGeometry>
                </mxCell>
                <mxCell id="gAaMG0DozR-4z9io2g_K-3" value="" style="edgeStyle=orthogonalEdgeStyle;orthogonalLoop=1;jettySize=auto;html=1;rounded=0;exitX=0.473;exitY=1.099;exitDx=0;exitDy=0;exitPerimeter=0;strokeColor=#3333FF;strokeWidth=2;" parent="YnWthHs3vj5_45dDq-pV-1" source="gAaMG0DozR-4z9io2g_K-2" edge="1">
                    <mxGeometry width="80" relative="1" as="geometry">
                        <mxPoint x="720" y="140" as="sourcePoint"/>
                        <mxPoint x="720" y="90" as="targetPoint"/>
                        <Array as="points">
                            <mxPoint x="720" y="340"/>
                            <mxPoint x="270" y="340"/>
                            <mxPoint x="270" y="50"/>
                            <mxPoint x="720" y="50"/>
                        </Array>
                    </mxGeometry>
                </mxCell>
                <mxCell id="gAaMG0DozR-4z9io2g_K-4" value="&lt;h1&gt;X&lt;/h1&gt;" style="text;strokeColor=none;align=center;fillColor=none;html=1;verticalAlign=middle;whiteSpace=wrap;rounded=0;fontColor=#33FF33;" parent="YnWthHs3vj5_45dDq-pV-1" vertex="1">
                    <mxGeometry x="790" y="170" width="20" height="20" as="geometry"/>
                </mxCell>
                <mxCell id="gAaMG0DozR-4z9io2g_K-5" value="" style="edgeStyle=orthogonalEdgeStyle;orthogonalLoop=1;jettySize=auto;html=1;rounded=0;strokeColor=#33FF33;strokeWidth=2;" parent="YnWthHs3vj5_45dDq-pV-1" source="gAaMG0DozR-4z9io2g_K-4" edge="1">
                    <mxGeometry width="80" relative="1" as="geometry">
                        <mxPoint x="700" y="240" as="sourcePoint"/>
                        <mxPoint x="800" y="150" as="targetPoint"/>
                        <Array as="points">
                            <mxPoint x="800" y="750"/>
                            <mxPoint x="140" y="750"/>
                            <mxPoint x="140" y="590"/>
                            <mxPoint x="80" y="590"/>
                            <mxPoint x="80" y="180"/>
                            <mxPoint x="120" y="180"/>
                            <mxPoint x="120" y="20"/>
                            <mxPoint x="800" y="20"/>
                        </Array>
                    </mxGeometry>
                </mxCell>
                <mxCell id="YnWthHs3vj5_45dDq-pV-3" value="&lt;h1&gt;&lt;br&gt;&lt;/h1&gt;" style="pointerEvents=1;verticalLabelPosition=bottom;shadow=0;dashed=0;align=center;html=1;verticalAlign=top;shape=mxgraph.electrical.signal_sources.source;aspect=fixed;points=[[0.5,0,0],[1,0.5,0],[0.5,1,0],[0,0.5,0]];elSignalType=ac;strokeWidth=2;" parent="YnWthHs3vj5_45dDq-pV-1" vertex="1">
                    <mxGeometry x="150" y="479.99999999999994" width="60" height="60" as="geometry"/>
                </mxCell>
                <mxCell id="YnWthHs3vj5_45dDq-pV-4" value="" style="pointerEvents=1;verticalLabelPosition=bottom;shadow=0;dashed=0;align=center;html=1;verticalAlign=top;shape=mxgraph.electrical.signal_sources.source;aspect=fixed;points=[[0.5,0,0],[1,0.5,0],[0.5,1,0],[0,0.5,0]];elSignalType=ac;strokeWidth=2;" parent="YnWthHs3vj5_45dDq-pV-1" vertex="1">
                    <mxGeometry x="150" y="660" width="60" height="60" as="geometry"/>
                </mxCell>
                <mxCell id="YnWthHs3vj5_45dDq-pV-5" style="edgeStyle=orthogonalEdgeStyle;rounded=0;orthogonalLoop=1;jettySize=auto;html=1;exitX=0.5;exitY=0;exitDx=0;exitDy=0;exitPerimeter=0;entryX=0.5;entryY=1;entryDx=0;entryDy=0;entryPerimeter=0;endArrow=none;endFill=0;strokeWidth=2;" parent="YnWthHs3vj5_45dDq-pV-1" source="YnWthHs3vj5_45dDq-pV-4" target="YnWthHs3vj5_45dDq-pV-3" edge="1">
                    <mxGeometry relative="1" as="geometry">
                        <Array as="points">
                            <mxPoint x="180" y="629.55"/>
                        </Array>
                    </mxGeometry>
                </mxCell>
                <mxCell id="YnWthHs3vj5_45dDq-pV-6" value="" style="pointerEvents=1;verticalLabelPosition=bottom;shadow=0;dashed=0;align=center;html=1;verticalAlign=top;shape=mxgraph.electrical.inductors.inductor_3;rotation=-240;strokeWidth=2;" parent="YnWthHs3vj5_45dDq-pV-1" vertex="1">
                    <mxGeometry x="410" y="601.55" width="350" height="28" as="geometry"/>
                </mxCell>
                <mxCell id="YnWthHs3vj5_45dDq-pV-7" style="edgeStyle=orthogonalEdgeStyle;rounded=0;orthogonalLoop=1;jettySize=auto;html=1;exitX=0.5;exitY=0;exitDx=0;exitDy=0;exitPerimeter=0;entryX=0;entryY=1;entryDx=0;entryDy=0;entryPerimeter=0;endArrow=none;endFill=0;strokeWidth=2;" parent="YnWthHs3vj5_45dDq-pV-1" source="YnWthHs3vj5_45dDq-pV-3" target="YnWthHs3vj5_45dDq-pV-6" edge="1">
                    <mxGeometry relative="1" as="geometry">
                        <Array as="points">
                            <mxPoint x="180" y="440"/>
                            <mxPoint x="660" y="440"/>
                        </Array>
                    </mxGeometry>
                </mxCell>
                <mxCell id="YnWthHs3vj5_45dDq-pV-8" style="edgeStyle=orthogonalEdgeStyle;rounded=0;orthogonalLoop=1;jettySize=auto;html=1;exitX=0.5;exitY=1;exitDx=0;exitDy=0;exitPerimeter=0;entryX=1;entryY=1;entryDx=0;entryDy=0;entryPerimeter=0;endArrow=none;endFill=0;strokeWidth=2;" parent="YnWthHs3vj5_45dDq-pV-1" source="YnWthHs3vj5_45dDq-pV-4" target="YnWthHs3vj5_45dDq-pV-6" edge="1">
                    <mxGeometry relative="1" as="geometry">
                        <mxPoint x="185" y="713.55" as="sourcePoint"/>
                        <mxPoint x="665.3756443470179" y="772.1044456622768" as="targetPoint"/>
                        <Array as="points">
                            <mxPoint x="180" y="760"/>
                            <mxPoint x="485" y="760"/>
                        </Array>
                    </mxGeometry>
                </mxCell>
                <mxCell id="YnWthHs3vj5_45dDq-pV-9" style="edgeStyle=orthogonalEdgeStyle;rounded=0;orthogonalLoop=1;jettySize=auto;html=1;exitX=1;exitY=0.5;exitDx=0;exitDy=0;exitPerimeter=0;endArrow=none;endFill=0;strokeWidth=2;" parent="YnWthHs3vj5_45dDq-pV-1" source="YnWthHs3vj5_45dDq-pV-10" edge="1">
                    <mxGeometry relative="1" as="geometry">
                        <mxPoint x="180" y="600" as="targetPoint"/>
                        <Array as="points">
                            <mxPoint x="50" y="600"/>
                        </Array>
                    </mxGeometry>
                </mxCell>
                <mxCell id="YnWthHs3vj5_45dDq-pV-10" value="" style="pointerEvents=1;verticalLabelPosition=bottom;shadow=0;dashed=0;align=center;html=1;verticalAlign=top;shape=mxgraph.electrical.resistors.resistor_2;rotation=90;strokeWidth=2;" parent="YnWthHs3vj5_45dDq-pV-1" vertex="1">
                    <mxGeometry y="499.54999999999995" width="100" height="20" as="geometry"/>
                </mxCell>
                <mxCell id="YnWthHs3vj5_45dDq-pV-11" style="edgeStyle=orthogonalEdgeStyle;rounded=0;orthogonalLoop=1;jettySize=auto;html=1;exitX=0.62;exitY=0;exitDx=0;exitDy=0;exitPerimeter=0;endArrow=none;endFill=0;strokeWidth=2;" parent="YnWthHs3vj5_45dDq-pV-1" source="YnWthHs3vj5_45dDq-pV-12" edge="1">
                    <mxGeometry relative="1" as="geometry">
                        <mxPoint x="50" y="400" as="targetPoint"/>
                        <Array as="points">
                            <mxPoint x="-150" y="400"/>
                        </Array>
                    </mxGeometry>
                </mxCell>
                <mxCell id="YnWthHs3vj5_45dDq-pV-12" value="" style="pointerEvents=1;verticalLabelPosition=bottom;shadow=0;dashed=0;align=center;html=1;verticalAlign=top;shape=mxgraph.electrical.miscellaneous.chassis;strokeWidth=2;" parent="YnWthHs3vj5_45dDq-pV-1" vertex="1">
                    <mxGeometry x="-190" y="492.99999999999994" width="65" height="32" as="geometry"/>
                </mxCell>
                <mxCell id="YnWthHs3vj5_45dDq-pV-13" value="&lt;h1&gt;V&lt;sub&gt;DB&lt;/sub&gt;&lt;/h1&gt;" style="text;strokeColor=none;align=center;fillColor=none;html=1;verticalAlign=middle;whiteSpace=wrap;rounded=0;" parent="YnWthHs3vj5_45dDq-pV-1" vertex="1">
                    <mxGeometry x="210" y="494.99999999999994" width="60" height="30" as="geometry"/>
                </mxCell>
                <mxCell id="YnWthHs3vj5_45dDq-pV-14" value="&lt;h1&gt;V&lt;sub&gt;DB&lt;/sub&gt;&lt;/h1&gt;" style="text;strokeColor=none;align=center;fillColor=none;html=1;verticalAlign=middle;whiteSpace=wrap;rounded=0;" parent="YnWthHs3vj5_45dDq-pV-1" vertex="1">
                    <mxGeometry x="210" y="675" width="60" height="30" as="geometry"/>
                </mxCell>
                <mxCell id="YnWthHs3vj5_45dDq-pV-15" value="&lt;h1&gt;&lt;br&gt;&lt;/h1&gt;" style="pointerEvents=1;verticalLabelPosition=bottom;shadow=0;dashed=0;align=center;html=1;verticalAlign=top;shape=mxgraph.electrical.signal_sources.source;aspect=fixed;points=[[0.5,0,0],[1,0.5,0],[0.5,1,0],[0,0.5,0]];elSignalType=ac;strokeWidth=2;" parent="YnWthHs3vj5_45dDq-pV-1" vertex="1">
                    <mxGeometry x="150" y="80" width="60" height="60" as="geometry"/>
                </mxCell>
                <mxCell id="YnWthHs3vj5_45dDq-pV-16" value="" style="pointerEvents=1;verticalLabelPosition=bottom;shadow=0;dashed=0;align=center;html=1;verticalAlign=top;shape=mxgraph.electrical.signal_sources.source;aspect=fixed;points=[[0.5,0,0],[1,0.5,0],[0.5,1,0],[0,0.5,0]];elSignalType=ac;strokeWidth=2;" parent="YnWthHs3vj5_45dDq-pV-1" vertex="1">
                    <mxGeometry x="150" y="260" width="60" height="60" as="geometry"/>
                </mxCell>
                <mxCell id="YnWthHs3vj5_45dDq-pV-17" style="edgeStyle=orthogonalEdgeStyle;rounded=0;orthogonalLoop=1;jettySize=auto;html=1;exitX=0.5;exitY=0;exitDx=0;exitDy=0;exitPerimeter=0;entryX=0.5;entryY=1;entryDx=0;entryDy=0;entryPerimeter=0;endArrow=none;endFill=0;strokeWidth=2;" parent="YnWthHs3vj5_45dDq-pV-1" source="YnWthHs3vj5_45dDq-pV-16" target="YnWthHs3vj5_45dDq-pV-15" edge="1">
                    <mxGeometry relative="1" as="geometry">
                        <Array as="points">
                            <mxPoint x="180" y="200"/>
                        </Array>
                    </mxGeometry>
                </mxCell>
                <mxCell id="YnWthHs3vj5_45dDq-pV-18" value="" style="pointerEvents=1;verticalLabelPosition=bottom;shadow=0;dashed=0;align=center;html=1;verticalAlign=top;shape=mxgraph.electrical.inductors.inductor_3;rotation=60;strokeWidth=2;" parent="YnWthHs3vj5_45dDq-pV-1" vertex="1">
                    <mxGeometry x="410" y="170" width="350" height="28" as="geometry"/>
                </mxCell>
                <mxCell id="YnWthHs3vj5_45dDq-pV-19" style="edgeStyle=orthogonalEdgeStyle;rounded=0;orthogonalLoop=1;jettySize=auto;html=1;exitX=0.5;exitY=0;exitDx=0;exitDy=0;exitPerimeter=0;entryX=0;entryY=1;entryDx=0;entryDy=0;entryPerimeter=0;endArrow=none;endFill=0;strokeWidth=2;" parent="YnWthHs3vj5_45dDq-pV-1" source="YnWthHs3vj5_45dDq-pV-15" target="YnWthHs3vj5_45dDq-pV-18" edge="1">
                    <mxGeometry relative="1" as="geometry">
                        <Array as="points">
                            <mxPoint x="180" y="40"/>
                            <mxPoint x="348" y="40"/>
                        </Array>
                    </mxGeometry>
                </mxCell>
                <mxCell id="YnWthHs3vj5_45dDq-pV-20" style="edgeStyle=orthogonalEdgeStyle;rounded=0;orthogonalLoop=1;jettySize=auto;html=1;exitX=0.5;exitY=1;exitDx=0;exitDy=0;exitPerimeter=0;entryX=1;entryY=1;entryDx=0;entryDy=0;entryPerimeter=0;endArrow=none;endFill=0;strokeWidth=2;" parent="YnWthHs3vj5_45dDq-pV-1" source="YnWthHs3vj5_45dDq-pV-16" target="YnWthHs3vj5_45dDq-pV-18" edge="1">
                    <mxGeometry relative="1" as="geometry">
                        <mxPoint x="185" y="284" as="sourcePoint"/>
                        <mxPoint x="665.3756443470179" y="342.5544456622768" as="targetPoint"/>
                        <Array as="points">
                            <mxPoint x="180" y="360"/>
                            <mxPoint x="660" y="360"/>
                        </Array>
                    </mxGeometry>
                </mxCell>
                <mxCell id="YnWthHs3vj5_45dDq-pV-21" style="edgeStyle=orthogonalEdgeStyle;rounded=0;orthogonalLoop=1;jettySize=auto;html=1;exitX=1;exitY=0.5;exitDx=0;exitDy=0;exitPerimeter=0;endArrow=none;endFill=0;strokeWidth=2;" parent="YnWthHs3vj5_45dDq-pV-1" source="YnWthHs3vj5_45dDq-pV-22" edge="1">
                    <mxGeometry relative="1" as="geometry">
                        <mxPoint x="180" y="199.9999999999999" as="targetPoint"/>
                        <Array as="points">
                            <mxPoint x="50" y="200"/>
                        </Array>
                    </mxGeometry>
                </mxCell>
                <mxCell id="YnWthHs3vj5_45dDq-pV-22" value="" style="pointerEvents=1;verticalLabelPosition=bottom;shadow=0;dashed=0;align=center;html=1;verticalAlign=top;shape=mxgraph.electrical.resistors.resistor_2;rotation=-90;strokeWidth=2;" parent="YnWthHs3vj5_45dDq-pV-1" vertex="1">
                    <mxGeometry y="280" width="100" height="20" as="geometry"/>
                </mxCell>
                <mxCell id="YnWthHs3vj5_45dDq-pV-23" value="&lt;h1&gt;V&lt;sub&gt;DA&lt;/sub&gt;&lt;/h1&gt;" style="text;strokeColor=none;align=center;fillColor=none;html=1;verticalAlign=middle;whiteSpace=wrap;rounded=0;" parent="YnWthHs3vj5_45dDq-pV-1" vertex="1">
                    <mxGeometry x="210" y="95" width="60" height="30" as="geometry"/>
                </mxCell>
                <mxCell id="YnWthHs3vj5_45dDq-pV-24" value="&lt;h1&gt;V&lt;sub&gt;DA&lt;/sub&gt;&lt;/h1&gt;" style="text;strokeColor=none;align=center;fillColor=none;html=1;verticalAlign=middle;whiteSpace=wrap;rounded=0;" parent="YnWthHs3vj5_45dDq-pV-1" vertex="1">
                    <mxGeometry x="210" y="275" width="60" height="30" as="geometry"/>
                </mxCell>
                <mxCell id="YnWthHs3vj5_45dDq-pV-25" style="edgeStyle=orthogonalEdgeStyle;rounded=0;orthogonalLoop=1;jettySize=auto;html=1;exitX=0;exitY=0.5;exitDx=0;exitDy=0;exitPerimeter=0;entryX=0;entryY=0.5;entryDx=0;entryDy=0;entryPerimeter=0;endArrow=none;endFill=0;strokeWidth=2;" parent="YnWthHs3vj5_45dDq-pV-1" source="YnWthHs3vj5_45dDq-pV-10" target="YnWthHs3vj5_45dDq-pV-22" edge="1">
                    <mxGeometry relative="1" as="geometry"/>
                </mxCell>
                <mxCell id="YnWthHs3vj5_45dDq-pV-26" value="&lt;h1&gt;V&lt;sub&gt;RA&lt;/sub&gt;&lt;/h1&gt;" style="text;strokeColor=none;align=center;fillColor=none;html=1;verticalAlign=middle;whiteSpace=wrap;rounded=0;" parent="YnWthHs3vj5_45dDq-pV-1" vertex="1">
                    <mxGeometry x="-20" y="275" width="60" height="30" as="geometry"/>
                </mxCell>
                <mxCell id="YnWthHs3vj5_45dDq-pV-27" value="&lt;h1&gt;V&lt;sub&gt;RB&lt;/sub&gt;&lt;/h1&gt;" style="text;strokeColor=none;align=center;fillColor=none;html=1;verticalAlign=middle;whiteSpace=wrap;rounded=0;" parent="YnWthHs3vj5_45dDq-pV-1" vertex="1">
                    <mxGeometry x="-20" y="499.54999999999995" width="60" height="30" as="geometry"/>
                </mxCell>
                <mxCell id="YnWthHs3vj5_45dDq-pV-28" value="&lt;h2&gt;+&lt;/h2&gt;" style="text;strokeColor=none;align=center;fillColor=none;html=1;verticalAlign=middle;whiteSpace=wrap;rounded=0;" parent="YnWthHs3vj5_45dDq-pV-1" vertex="1">
                    <mxGeometry x="160" y="240" width="20" height="20" as="geometry"/>
                </mxCell>
                <mxCell id="YnWthHs3vj5_45dDq-pV-29" value="&lt;h2&gt;-&lt;/h2&gt;" style="text;strokeColor=none;align=center;fillColor=none;html=1;verticalAlign=middle;whiteSpace=wrap;rounded=0;" parent="YnWthHs3vj5_45dDq-pV-1" vertex="1">
                    <mxGeometry x="160" y="140" width="20" height="20" as="geometry"/>
                </mxCell>
                <mxCell id="YnWthHs3vj5_45dDq-pV-30" value="&lt;h2&gt;+&lt;/h2&gt;" style="text;strokeColor=none;align=center;fillColor=none;html=1;verticalAlign=middle;whiteSpace=wrap;rounded=0;" parent="YnWthHs3vj5_45dDq-pV-1" vertex="1">
                    <mxGeometry x="160" y="60" width="20" height="20" as="geometry"/>
                </mxCell>
                <mxCell id="YnWthHs3vj5_45dDq-pV-31" value="&lt;h2&gt;-&lt;/h2&gt;" style="text;strokeColor=none;align=center;fillColor=none;html=1;verticalAlign=middle;whiteSpace=wrap;rounded=0;" parent="YnWthHs3vj5_45dDq-pV-1" vertex="1">
                    <mxGeometry x="160" y="320" width="20" height="20" as="geometry"/>
                </mxCell>
                <mxCell id="YnWthHs3vj5_45dDq-pV-32" value="&lt;h2&gt;+&lt;/h2&gt;" style="text;strokeColor=none;align=center;fillColor=none;html=1;verticalAlign=middle;whiteSpace=wrap;rounded=0;" parent="YnWthHs3vj5_45dDq-pV-1" vertex="1">
                    <mxGeometry x="30" y="240" width="20" height="20" as="geometry"/>
                </mxCell>
                <mxCell id="YnWthHs3vj5_45dDq-pV-33" value="&lt;h2&gt;-&lt;/h2&gt;" style="text;strokeColor=none;align=center;fillColor=none;html=1;verticalAlign=middle;whiteSpace=wrap;rounded=0;" parent="YnWthHs3vj5_45dDq-pV-1" vertex="1">
                    <mxGeometry x="30" y="320" width="20" height="20" as="geometry"/>
                </mxCell>
                <mxCell id="YnWthHs3vj5_45dDq-pV-34" value="&lt;h2&gt;+&lt;/h2&gt;" style="text;strokeColor=none;align=center;fillColor=none;html=1;verticalAlign=middle;whiteSpace=wrap;rounded=0;" parent="YnWthHs3vj5_45dDq-pV-1" vertex="1">
                    <mxGeometry x="30" y="540" width="20" height="20" as="geometry"/>
                </mxCell>
                <mxCell id="YnWthHs3vj5_45dDq-pV-35" value="&lt;h2&gt;-&lt;/h2&gt;" style="text;strokeColor=none;align=center;fillColor=none;html=1;verticalAlign=middle;whiteSpace=wrap;rounded=0;" parent="YnWthHs3vj5_45dDq-pV-1" vertex="1">
                    <mxGeometry x="30" y="460" width="20" height="20" as="geometry"/>
                </mxCell>
                <mxCell id="YnWthHs3vj5_45dDq-pV-36" value="&lt;h2&gt;+&lt;/h2&gt;" style="text;strokeColor=none;align=center;fillColor=none;html=1;verticalAlign=middle;whiteSpace=wrap;rounded=0;" parent="YnWthHs3vj5_45dDq-pV-1" vertex="1">
                    <mxGeometry x="160" y="540" width="20" height="20" as="geometry"/>
                </mxCell>
                <mxCell id="YnWthHs3vj5_45dDq-pV-37" value="&lt;h2&gt;-&lt;/h2&gt;" style="text;strokeColor=none;align=center;fillColor=none;html=1;verticalAlign=middle;whiteSpace=wrap;rounded=0;" parent="YnWthHs3vj5_45dDq-pV-1" vertex="1">
                    <mxGeometry x="160" y="460" width="20" height="20" as="geometry"/>
                </mxCell>
                <mxCell id="YnWthHs3vj5_45dDq-pV-38" value="&lt;h2&gt;+&lt;/h2&gt;" style="text;strokeColor=none;align=center;fillColor=none;html=1;verticalAlign=middle;whiteSpace=wrap;rounded=0;" parent="YnWthHs3vj5_45dDq-pV-1" vertex="1">
                    <mxGeometry x="160" y="720" width="20" height="20" as="geometry"/>
                </mxCell>
                <mxCell id="YnWthHs3vj5_45dDq-pV-39" value="&lt;h2&gt;-&lt;/h2&gt;" style="text;strokeColor=none;align=center;fillColor=none;html=1;verticalAlign=middle;whiteSpace=wrap;rounded=0;" parent="YnWthHs3vj5_45dDq-pV-1" vertex="1">
                    <mxGeometry x="160" y="640" width="20" height="20" as="geometry"/>
                </mxCell>
                <mxCell id="YnWthHs3vj5_45dDq-pV-40" value="&lt;h1&gt;G&lt;/h1&gt;" style="text;strokeColor=none;align=center;fillColor=none;html=1;verticalAlign=middle;whiteSpace=wrap;rounded=0;" parent="YnWthHs3vj5_45dDq-pV-1" vertex="1">
                    <mxGeometry x="-210" y="465.44999999999993" width="60" height="30" as="geometry"/>
                </mxCell>
                <mxCell id="YnWthHs3vj5_45dDq-pV-41" value="&lt;p&gt;&lt;font style=&quot;font-size: 20px;&quot;&gt;V&lt;sub&gt;A-NA&lt;/sub&gt;&lt;/font&gt;&lt;/p&gt;" style="verticalLabelPosition=middle;shadow=0;dashed=0;align=center;html=1;verticalAlign=middle;strokeWidth=1;shape=ellipse;aspect=fixed;fontSize=50;movableLabel=1;" parent="YnWthHs3vj5_45dDq-pV-1" vertex="1">
                    <mxGeometry x="650" y="154" width="60" height="60" as="geometry">
                        <mxPoint y="-13" as="offset"/>
                    </mxGeometry>
                </mxCell>
                <mxCell id="YnWthHs3vj5_45dDq-pV-42" value="&lt;h2&gt;+&lt;/h2&gt;" style="text;strokeColor=none;align=center;fillColor=none;html=1;verticalAlign=middle;whiteSpace=wrap;rounded=0;" parent="YnWthHs3vj5_45dDq-pV-1" vertex="1">
                    <mxGeometry x="510" y="70" width="20" height="20" as="geometry"/>
                </mxCell>
                <mxCell id="YnWthHs3vj5_45dDq-pV-43" value="&lt;h2&gt;-&lt;/h2&gt;" style="text;strokeColor=none;align=center;fillColor=none;html=1;verticalAlign=middle;whiteSpace=wrap;rounded=0;" parent="YnWthHs3vj5_45dDq-pV-1" vertex="1">
                    <mxGeometry x="630" y="280" width="20" height="20" as="geometry"/>
                </mxCell>
                <mxCell id="YnWthHs3vj5_45dDq-pV-44" value="&lt;h2&gt;+&lt;/h2&gt;" style="text;strokeColor=none;align=center;fillColor=none;html=1;verticalAlign=middle;whiteSpace=wrap;rounded=0;" parent="YnWthHs3vj5_45dDq-pV-1" vertex="1">
                    <mxGeometry x="510" y="710" width="20" height="20" as="geometry"/>
                </mxCell>
                <mxCell id="YnWthHs3vj5_45dDq-pV-45" value="&lt;h2&gt;-&lt;/h2&gt;" style="text;strokeColor=none;align=center;fillColor=none;html=1;verticalAlign=middle;whiteSpace=wrap;rounded=0;" parent="YnWthHs3vj5_45dDq-pV-1" vertex="1">
                    <mxGeometry x="630" y="498.55" width="20" height="20" as="geometry"/>
                </mxCell>
                <mxCell id="YnWthHs3vj5_45dDq-pV-46" style="edgeStyle=orthogonalEdgeStyle;rounded=0;orthogonalLoop=1;jettySize=auto;html=1;entryX=0;entryY=1;entryDx=0;entryDy=0;entryPerimeter=0;dashed=1;" parent="YnWthHs3vj5_45dDq-pV-1" source="YnWthHs3vj5_45dDq-pV-41" target="YnWthHs3vj5_45dDq-pV-18" edge="1">
                    <mxGeometry relative="1" as="geometry">
                        <Array as="points">
                            <mxPoint x="680" y="40"/>
                            <mxPoint x="485" y="40"/>
                        </Array>
                    </mxGeometry>
                </mxCell>
                <mxCell id="YnWthHs3vj5_45dDq-pV-47" style="edgeStyle=orthogonalEdgeStyle;rounded=0;orthogonalLoop=1;jettySize=auto;html=1;exitX=0.5;exitY=1;exitDx=0;exitDy=0;dashed=1;" parent="YnWthHs3vj5_45dDq-pV-1" source="YnWthHs3vj5_45dDq-pV-41" edge="1">
                    <mxGeometry relative="1" as="geometry">
                        <mxPoint x="660" y="360" as="targetPoint"/>
                        <Array as="points">
                            <mxPoint x="680" y="360"/>
                        </Array>
                    </mxGeometry>
                </mxCell>
                <mxCell id="YnWthHs3vj5_45dDq-pV-48" style="edgeStyle=orthogonalEdgeStyle;rounded=0;orthogonalLoop=1;jettySize=auto;html=1;exitX=0.5;exitY=0;exitDx=0;exitDy=0;entryX=0;entryY=1;entryDx=0;entryDy=0;entryPerimeter=0;dashed=1;" parent="YnWthHs3vj5_45dDq-pV-1" source="YnWthHs3vj5_45dDq-pV-52" target="YnWthHs3vj5_45dDq-pV-18" edge="1">
                    <mxGeometry relative="1" as="geometry">
                        <mxPoint x="760" y="370" as="sourcePoint"/>
                        <Array as="points">
                            <mxPoint x="840" y="39"/>
                        </Array>
                    </mxGeometry>
                </mxCell>
                <mxCell id="YnWthHs3vj5_45dDq-pV-49" style="edgeStyle=orthogonalEdgeStyle;rounded=0;orthogonalLoop=1;jettySize=auto;html=1;exitX=0.5;exitY=1;exitDx=0;exitDy=0;entryX=1;entryY=1;entryDx=0;entryDy=0;entryPerimeter=0;dashed=1;" parent="YnWthHs3vj5_45dDq-pV-1" source="YnWthHs3vj5_45dDq-pV-52" target="YnWthHs3vj5_45dDq-pV-6" edge="1">
                    <mxGeometry relative="1" as="geometry">
                        <mxPoint x="760" y="430" as="sourcePoint"/>
                        <Array as="points">
                            <mxPoint x="840" y="760"/>
                        </Array>
                    </mxGeometry>
                </mxCell>
                <mxCell id="YnWthHs3vj5_45dDq-pV-50" style="edgeStyle=orthogonalEdgeStyle;rounded=0;orthogonalLoop=1;jettySize=auto;html=1;exitX=0.5;exitY=1;exitDx=0;exitDy=0;dashed=1;" parent="YnWthHs3vj5_45dDq-pV-1" edge="1">
                    <mxGeometry relative="1" as="geometry">
                        <mxPoint x="-149.57142857142844" y="400" as="targetPoint"/>
                        <mxPoint x="-150" y="220" as="sourcePoint"/>
                        <Array as="points">
                            <mxPoint x="-150" y="310"/>
                            <mxPoint x="-150" y="310"/>
                        </Array>
                    </mxGeometry>
                </mxCell>
                <mxCell id="YnWthHs3vj5_45dDq-pV-51" style="edgeStyle=orthogonalEdgeStyle;rounded=0;orthogonalLoop=1;jettySize=auto;html=1;exitX=0.5;exitY=0;exitDx=0;exitDy=0;entryX=0;entryY=1;entryDx=0;entryDy=0;entryPerimeter=0;dashed=1;" parent="YnWthHs3vj5_45dDq-pV-1" target="YnWthHs3vj5_45dDq-pV-18" edge="1">
                    <mxGeometry relative="1" as="geometry">
                        <mxPoint x="-150" y="160" as="sourcePoint"/>
                        <Array as="points">
                            <mxPoint x="-150" y="-40"/>
                            <mxPoint x="485" y="-40"/>
                        </Array>
                    </mxGeometry>
                </mxCell>
                <mxCell id="YnWthHs3vj5_45dDq-pV-52" value="&lt;p&gt;&lt;font style=&quot;font-size: 20px;&quot;&gt;V&lt;sub&gt;A-B&lt;/sub&gt;&lt;/font&gt;&lt;/p&gt;" style="verticalLabelPosition=middle;shadow=0;dashed=0;align=center;html=1;verticalAlign=middle;strokeWidth=1;shape=ellipse;aspect=fixed;fontSize=50;movableLabel=1;" parent="YnWthHs3vj5_45dDq-pV-1" vertex="1">
                    <mxGeometry x="810" y="370" width="60" height="60" as="geometry">
                        <mxPoint y="-13" as="offset"/>
                    </mxGeometry>
                </mxCell>
                <mxCell id="YnWthHs3vj5_45dDq-pV-53" value="&lt;p&gt;&lt;font style=&quot;font-size: 20px;&quot;&gt;V&lt;sub&gt;A-G&lt;/sub&gt;&lt;/font&gt;&lt;/p&gt;" style="verticalLabelPosition=middle;shadow=0;dashed=0;align=center;html=1;verticalAlign=middle;strokeWidth=1;shape=ellipse;aspect=fixed;fontSize=50;movableLabel=1;" parent="YnWthHs3vj5_45dDq-pV-1" vertex="1">
                    <mxGeometry x="-180" y="160" width="60" height="60" as="geometry">
                        <mxPoint y="-13" as="offset"/>
                    </mxGeometry>
                </mxCell>
                <mxCell id="qCx9Oqb4z0TlygBCIJCw-52" value="&lt;h2&gt;+&lt;/h2&gt;" style="text;strokeColor=none;align=center;fillColor=none;html=1;verticalAlign=middle;whiteSpace=wrap;rounded=0;" parent="YnWthHs3vj5_45dDq-pV-1" vertex="1">
                    <mxGeometry x="660" y="134" width="20" height="20" as="geometry"/>
                </mxCell>
                <mxCell id="qCx9Oqb4z0TlygBCIJCw-53" value="&lt;h2&gt;-&lt;/h2&gt;" style="text;strokeColor=none;align=center;fillColor=none;html=1;verticalAlign=middle;whiteSpace=wrap;rounded=0;" parent="YnWthHs3vj5_45dDq-pV-1" vertex="1">
                    <mxGeometry x="660" y="214" width="20" height="20" as="geometry"/>
                </mxCell>
                <mxCell id="qCx9Oqb4z0TlygBCIJCw-54" value="&lt;h2&gt;-&lt;/h2&gt;" style="text;strokeColor=none;align=center;fillColor=none;html=1;verticalAlign=middle;whiteSpace=wrap;rounded=0;" parent="YnWthHs3vj5_45dDq-pV-1" vertex="1">
                    <mxGeometry x="820" y="430" width="20" height="20" as="geometry"/>
                </mxCell>
                <mxCell id="qCx9Oqb4z0TlygBCIJCw-55" value="&lt;h2&gt;-&lt;/h2&gt;" style="text;strokeColor=none;align=center;fillColor=none;html=1;verticalAlign=middle;whiteSpace=wrap;rounded=0;" parent="YnWthHs3vj5_45dDq-pV-1" vertex="1">
                    <mxGeometry x="-170" y="220" width="20" height="20" as="geometry"/>
                </mxCell>
                <mxCell id="qCx9Oqb4z0TlygBCIJCw-56" value="&lt;h2&gt;+&lt;/h2&gt;" style="text;strokeColor=none;align=center;fillColor=none;html=1;verticalAlign=middle;whiteSpace=wrap;rounded=0;" parent="YnWthHs3vj5_45dDq-pV-1" vertex="1">
                    <mxGeometry x="-170" y="140" width="20" height="20" as="geometry"/>
                </mxCell>
                <mxCell id="qCx9Oqb4z0TlygBCIJCw-114" value="&lt;h2&gt;+&lt;/h2&gt;" style="text;strokeColor=none;align=center;fillColor=none;html=1;verticalAlign=middle;whiteSpace=wrap;rounded=0;" parent="YnWthHs3vj5_45dDq-pV-1" vertex="1">
                    <mxGeometry x="820" y="350" width="20" height="20" as="geometry"/>
                </mxCell>
                <mxCell id="gAaMG0DozR-4z9io2g_K-2" value="&lt;h1&gt;X&lt;/h1&gt;" style="text;strokeColor=none;align=center;fillColor=none;html=1;verticalAlign=middle;whiteSpace=wrap;rounded=0;fontColor=#3333FF;" parent="YnWthHs3vj5_45dDq-pV-1" vertex="1">
                    <mxGeometry x="710" y="100" width="20" height="20" as="geometry"/>
                </mxCell>
            </root>
        </mxGraphModel>
    </diagram>
    <diagram name="Schematic - With Ground" id="q1Ap6IC24x7RfDqoAjun">
        <mxGraphModel dx="1155" dy="1287" grid="1" gridSize="10" guides="1" tooltips="1" connect="1" arrows="1" fold="1" page="1" pageScale="1" pageWidth="850" pageHeight="1100" math="0" shadow="0">
            <root>
                <mxCell id="uo7kZjVzECRxsCQxjz2D-0"/>
                <mxCell id="uo7kZjVzECRxsCQxjz2D-1" parent="uo7kZjVzECRxsCQxjz2D-0"/>
                <mxCell id="YqRT3qiPFOVi9lgC8wc6-0" style="edgeStyle=orthogonalEdgeStyle;rounded=0;orthogonalLoop=1;jettySize=auto;html=1;endArrow=none;endFill=0;strokeWidth=6;" parent="uo7kZjVzECRxsCQxjz2D-1" edge="1">
                    <mxGeometry relative="1" as="geometry">
                        <mxPoint x="50" y="400" as="targetPoint"/>
                        <mxPoint x="180" y="440" as="sourcePoint"/>
                        <Array as="points">
                            <mxPoint x="180" y="400"/>
                        </Array>
                    </mxGeometry>
                </mxCell>
                <mxCell id="uo7kZjVzECRxsCQxjz2D-2" value="&lt;h1&gt;&lt;br&gt;&lt;/h1&gt;" style="pointerEvents=1;verticalLabelPosition=bottom;shadow=0;dashed=0;align=center;html=1;verticalAlign=top;shape=mxgraph.electrical.signal_sources.source;aspect=fixed;points=[[0.5,0,0],[1,0.5,0],[0.5,1,0],[0,0.5,0]];elSignalType=ac;strokeWidth=2;" parent="uo7kZjVzECRxsCQxjz2D-1" vertex="1">
                    <mxGeometry x="150" y="479.99999999999994" width="60" height="60" as="geometry"/>
                </mxCell>
                <mxCell id="uo7kZjVzECRxsCQxjz2D-3" value="" style="pointerEvents=1;verticalLabelPosition=bottom;shadow=0;dashed=0;align=center;html=1;verticalAlign=top;shape=mxgraph.electrical.signal_sources.source;aspect=fixed;points=[[0.5,0,0],[1,0.5,0],[0.5,1,0],[0,0.5,0]];elSignalType=ac;strokeWidth=2;" parent="uo7kZjVzECRxsCQxjz2D-1" vertex="1">
                    <mxGeometry x="150" y="660" width="60" height="60" as="geometry"/>
                </mxCell>
                <mxCell id="uo7kZjVzECRxsCQxjz2D-4" style="edgeStyle=orthogonalEdgeStyle;rounded=0;orthogonalLoop=1;jettySize=auto;html=1;exitX=0.5;exitY=0;exitDx=0;exitDy=0;exitPerimeter=0;entryX=0.5;entryY=1;entryDx=0;entryDy=0;entryPerimeter=0;endArrow=none;endFill=0;strokeWidth=2;" parent="uo7kZjVzECRxsCQxjz2D-1" source="uo7kZjVzECRxsCQxjz2D-3" target="uo7kZjVzECRxsCQxjz2D-2" edge="1">
                    <mxGeometry relative="1" as="geometry">
                        <Array as="points">
                            <mxPoint x="180" y="629.55"/>
                        </Array>
                    </mxGeometry>
                </mxCell>
                <mxCell id="uo7kZjVzECRxsCQxjz2D-5" value="" style="pointerEvents=1;verticalLabelPosition=bottom;shadow=0;dashed=0;align=center;html=1;verticalAlign=top;shape=mxgraph.electrical.inductors.inductor_3;rotation=-240;strokeWidth=2;" parent="uo7kZjVzECRxsCQxjz2D-1" vertex="1">
                    <mxGeometry x="410" y="601.55" width="350" height="28" as="geometry"/>
                </mxCell>
                <mxCell id="uo7kZjVzECRxsCQxjz2D-6" style="edgeStyle=orthogonalEdgeStyle;rounded=0;orthogonalLoop=1;jettySize=auto;html=1;exitX=0.5;exitY=0;exitDx=0;exitDy=0;exitPerimeter=0;entryX=0;entryY=1;entryDx=0;entryDy=0;entryPerimeter=0;endArrow=none;endFill=0;strokeWidth=2;" parent="uo7kZjVzECRxsCQxjz2D-1" source="uo7kZjVzECRxsCQxjz2D-2" target="uo7kZjVzECRxsCQxjz2D-5" edge="1">
                    <mxGeometry relative="1" as="geometry">
                        <Array as="points">
                            <mxPoint x="180" y="440"/>
                            <mxPoint x="660" y="440"/>
                        </Array>
                    </mxGeometry>
                </mxCell>
                <mxCell id="uo7kZjVzECRxsCQxjz2D-7" style="edgeStyle=orthogonalEdgeStyle;rounded=0;orthogonalLoop=1;jettySize=auto;html=1;exitX=0.5;exitY=1;exitDx=0;exitDy=0;exitPerimeter=0;entryX=1;entryY=1;entryDx=0;entryDy=0;entryPerimeter=0;endArrow=none;endFill=0;strokeWidth=2;" parent="uo7kZjVzECRxsCQxjz2D-1" source="uo7kZjVzECRxsCQxjz2D-3" target="uo7kZjVzECRxsCQxjz2D-5" edge="1">
                    <mxGeometry relative="1" as="geometry">
                        <mxPoint x="185" y="713.55" as="sourcePoint"/>
                        <mxPoint x="665.3756443470179" y="772.1044456622768" as="targetPoint"/>
                        <Array as="points">
                            <mxPoint x="180" y="760"/>
                            <mxPoint x="485" y="760"/>
                        </Array>
                    </mxGeometry>
                </mxCell>
                <mxCell id="uo7kZjVzECRxsCQxjz2D-8" style="edgeStyle=orthogonalEdgeStyle;rounded=0;orthogonalLoop=1;jettySize=auto;html=1;exitX=1;exitY=0.5;exitDx=0;exitDy=0;exitPerimeter=0;endArrow=none;endFill=0;strokeWidth=2;" parent="uo7kZjVzECRxsCQxjz2D-1" source="uo7kZjVzECRxsCQxjz2D-9" edge="1">
                    <mxGeometry relative="1" as="geometry">
                        <mxPoint x="180" y="600" as="targetPoint"/>
                        <Array as="points">
                            <mxPoint x="50" y="600"/>
                        </Array>
                    </mxGeometry>
                </mxCell>
                <mxCell id="uo7kZjVzECRxsCQxjz2D-9" value="" style="pointerEvents=1;verticalLabelPosition=bottom;shadow=0;dashed=0;align=center;html=1;verticalAlign=top;shape=mxgraph.electrical.resistors.resistor_2;rotation=90;strokeWidth=2;" parent="uo7kZjVzECRxsCQxjz2D-1" vertex="1">
                    <mxGeometry y="499.54999999999995" width="100" height="20" as="geometry"/>
                </mxCell>
                <mxCell id="uo7kZjVzECRxsCQxjz2D-10" style="edgeStyle=orthogonalEdgeStyle;rounded=0;orthogonalLoop=1;jettySize=auto;html=1;exitX=0.62;exitY=0;exitDx=0;exitDy=0;exitPerimeter=0;endArrow=none;endFill=0;strokeWidth=2;" parent="uo7kZjVzECRxsCQxjz2D-1" source="uo7kZjVzECRxsCQxjz2D-11" edge="1">
                    <mxGeometry relative="1" as="geometry">
                        <mxPoint x="50" y="400" as="targetPoint"/>
                        <Array as="points">
                            <mxPoint x="-150" y="400"/>
                        </Array>
                    </mxGeometry>
                </mxCell>
                <mxCell id="uo7kZjVzECRxsCQxjz2D-11" value="" style="pointerEvents=1;verticalLabelPosition=bottom;shadow=0;dashed=0;align=center;html=1;verticalAlign=top;shape=mxgraph.electrical.miscellaneous.chassis;strokeWidth=2;" parent="uo7kZjVzECRxsCQxjz2D-1" vertex="1">
                    <mxGeometry x="-190" y="492.99999999999994" width="65" height="32" as="geometry"/>
                </mxCell>
                <mxCell id="uo7kZjVzECRxsCQxjz2D-12" value="&lt;h1&gt;V&lt;sub&gt;DB&lt;/sub&gt;&lt;/h1&gt;" style="text;strokeColor=none;align=center;fillColor=none;html=1;verticalAlign=middle;whiteSpace=wrap;rounded=0;" parent="uo7kZjVzECRxsCQxjz2D-1" vertex="1">
                    <mxGeometry x="210" y="494.99999999999994" width="60" height="30" as="geometry"/>
                </mxCell>
                <mxCell id="uo7kZjVzECRxsCQxjz2D-13" value="&lt;h1&gt;V&lt;sub&gt;DB&lt;/sub&gt;&lt;/h1&gt;" style="text;strokeColor=none;align=center;fillColor=none;html=1;verticalAlign=middle;whiteSpace=wrap;rounded=0;" parent="uo7kZjVzECRxsCQxjz2D-1" vertex="1">
                    <mxGeometry x="210" y="675" width="60" height="30" as="geometry"/>
                </mxCell>
                <mxCell id="uo7kZjVzECRxsCQxjz2D-14" value="&lt;h1&gt;&lt;br&gt;&lt;/h1&gt;" style="pointerEvents=1;verticalLabelPosition=bottom;shadow=0;dashed=0;align=center;html=1;verticalAlign=top;shape=mxgraph.electrical.signal_sources.source;aspect=fixed;points=[[0.5,0,0],[1,0.5,0],[0.5,1,0],[0,0.5,0]];elSignalType=ac;strokeWidth=2;" parent="uo7kZjVzECRxsCQxjz2D-1" vertex="1">
                    <mxGeometry x="150" y="80" width="60" height="60" as="geometry"/>
                </mxCell>
                <mxCell id="uo7kZjVzECRxsCQxjz2D-15" value="" style="pointerEvents=1;verticalLabelPosition=bottom;shadow=0;dashed=0;align=center;html=1;verticalAlign=top;shape=mxgraph.electrical.signal_sources.source;aspect=fixed;points=[[0.5,0,0],[1,0.5,0],[0.5,1,0],[0,0.5,0]];elSignalType=ac;strokeWidth=2;" parent="uo7kZjVzECRxsCQxjz2D-1" vertex="1">
                    <mxGeometry x="150" y="260" width="60" height="60" as="geometry"/>
                </mxCell>
                <mxCell id="uo7kZjVzECRxsCQxjz2D-16" style="edgeStyle=orthogonalEdgeStyle;rounded=0;orthogonalLoop=1;jettySize=auto;html=1;exitX=0.5;exitY=0;exitDx=0;exitDy=0;exitPerimeter=0;entryX=0.5;entryY=1;entryDx=0;entryDy=0;entryPerimeter=0;endArrow=none;endFill=0;strokeWidth=2;" parent="uo7kZjVzECRxsCQxjz2D-1" source="uo7kZjVzECRxsCQxjz2D-15" target="uo7kZjVzECRxsCQxjz2D-14" edge="1">
                    <mxGeometry relative="1" as="geometry">
                        <Array as="points">
                            <mxPoint x="180" y="200"/>
                        </Array>
                    </mxGeometry>
                </mxCell>
                <mxCell id="uo7kZjVzECRxsCQxjz2D-17" value="" style="pointerEvents=1;verticalLabelPosition=bottom;shadow=0;dashed=0;align=center;html=1;verticalAlign=top;shape=mxgraph.electrical.inductors.inductor_3;rotation=60;strokeWidth=2;" parent="uo7kZjVzECRxsCQxjz2D-1" vertex="1">
                    <mxGeometry x="410" y="170" width="350" height="28" as="geometry"/>
                </mxCell>
                <mxCell id="uo7kZjVzECRxsCQxjz2D-18" style="edgeStyle=orthogonalEdgeStyle;rounded=0;orthogonalLoop=1;jettySize=auto;html=1;exitX=0.5;exitY=0;exitDx=0;exitDy=0;exitPerimeter=0;entryX=0;entryY=1;entryDx=0;entryDy=0;entryPerimeter=0;endArrow=none;endFill=0;strokeWidth=2;" parent="uo7kZjVzECRxsCQxjz2D-1" source="uo7kZjVzECRxsCQxjz2D-14" target="uo7kZjVzECRxsCQxjz2D-17" edge="1">
                    <mxGeometry relative="1" as="geometry">
                        <Array as="points">
                            <mxPoint x="180" y="40"/>
                            <mxPoint x="348" y="40"/>
                        </Array>
                    </mxGeometry>
                </mxCell>
                <mxCell id="uo7kZjVzECRxsCQxjz2D-19" style="edgeStyle=orthogonalEdgeStyle;rounded=0;orthogonalLoop=1;jettySize=auto;html=1;exitX=0.5;exitY=1;exitDx=0;exitDy=0;exitPerimeter=0;entryX=1;entryY=1;entryDx=0;entryDy=0;entryPerimeter=0;endArrow=none;endFill=0;strokeWidth=2;" parent="uo7kZjVzECRxsCQxjz2D-1" source="uo7kZjVzECRxsCQxjz2D-15" target="uo7kZjVzECRxsCQxjz2D-17" edge="1">
                    <mxGeometry relative="1" as="geometry">
                        <mxPoint x="185" y="284" as="sourcePoint"/>
                        <mxPoint x="665.3756443470179" y="342.5544456622768" as="targetPoint"/>
                        <Array as="points">
                            <mxPoint x="180" y="360"/>
                            <mxPoint x="660" y="360"/>
                        </Array>
                    </mxGeometry>
                </mxCell>
                <mxCell id="uo7kZjVzECRxsCQxjz2D-20" style="edgeStyle=orthogonalEdgeStyle;rounded=0;orthogonalLoop=1;jettySize=auto;html=1;exitX=1;exitY=0.5;exitDx=0;exitDy=0;exitPerimeter=0;endArrow=none;endFill=0;strokeWidth=2;" parent="uo7kZjVzECRxsCQxjz2D-1" source="uo7kZjVzECRxsCQxjz2D-21" edge="1">
                    <mxGeometry relative="1" as="geometry">
                        <mxPoint x="180" y="199.9999999999999" as="targetPoint"/>
                        <Array as="points">
                            <mxPoint x="50" y="200"/>
                        </Array>
                    </mxGeometry>
                </mxCell>
                <mxCell id="uo7kZjVzECRxsCQxjz2D-21" value="" style="pointerEvents=1;verticalLabelPosition=bottom;shadow=0;dashed=0;align=center;html=1;verticalAlign=top;shape=mxgraph.electrical.resistors.resistor_2;rotation=-90;strokeWidth=2;" parent="uo7kZjVzECRxsCQxjz2D-1" vertex="1">
                    <mxGeometry y="280" width="100" height="20" as="geometry"/>
                </mxCell>
                <mxCell id="uo7kZjVzECRxsCQxjz2D-22" value="&lt;h1&gt;V&lt;sub&gt;DA&lt;/sub&gt;&lt;/h1&gt;" style="text;strokeColor=none;align=center;fillColor=none;html=1;verticalAlign=middle;whiteSpace=wrap;rounded=0;" parent="uo7kZjVzECRxsCQxjz2D-1" vertex="1">
                    <mxGeometry x="210" y="95" width="60" height="30" as="geometry"/>
                </mxCell>
                <mxCell id="uo7kZjVzECRxsCQxjz2D-23" value="&lt;h1&gt;V&lt;sub&gt;DA&lt;/sub&gt;&lt;/h1&gt;" style="text;strokeColor=none;align=center;fillColor=none;html=1;verticalAlign=middle;whiteSpace=wrap;rounded=0;" parent="uo7kZjVzECRxsCQxjz2D-1" vertex="1">
                    <mxGeometry x="210" y="275" width="60" height="30" as="geometry"/>
                </mxCell>
                <mxCell id="uo7kZjVzECRxsCQxjz2D-24" style="edgeStyle=orthogonalEdgeStyle;rounded=0;orthogonalLoop=1;jettySize=auto;html=1;exitX=0;exitY=0.5;exitDx=0;exitDy=0;exitPerimeter=0;entryX=0;entryY=0.5;entryDx=0;entryDy=0;entryPerimeter=0;endArrow=none;endFill=0;strokeWidth=2;" parent="uo7kZjVzECRxsCQxjz2D-1" source="uo7kZjVzECRxsCQxjz2D-9" target="uo7kZjVzECRxsCQxjz2D-21" edge="1">
                    <mxGeometry relative="1" as="geometry"/>
                </mxCell>
                <mxCell id="uo7kZjVzECRxsCQxjz2D-25" value="&lt;h1&gt;V&lt;sub&gt;RA&lt;/sub&gt;&lt;/h1&gt;" style="text;strokeColor=none;align=center;fillColor=none;html=1;verticalAlign=middle;whiteSpace=wrap;rounded=0;" parent="uo7kZjVzECRxsCQxjz2D-1" vertex="1">
                    <mxGeometry x="-20" y="275" width="60" height="30" as="geometry"/>
                </mxCell>
                <mxCell id="uo7kZjVzECRxsCQxjz2D-26" value="&lt;h1&gt;V&lt;sub&gt;RB&lt;/sub&gt;&lt;/h1&gt;" style="text;strokeColor=none;align=center;fillColor=none;html=1;verticalAlign=middle;whiteSpace=wrap;rounded=0;" parent="uo7kZjVzECRxsCQxjz2D-1" vertex="1">
                    <mxGeometry x="-20" y="499.54999999999995" width="60" height="30" as="geometry"/>
                </mxCell>
                <mxCell id="uo7kZjVzECRxsCQxjz2D-27" value="&lt;h2&gt;+&lt;/h2&gt;" style="text;strokeColor=none;align=center;fillColor=none;html=1;verticalAlign=middle;whiteSpace=wrap;rounded=0;" parent="uo7kZjVzECRxsCQxjz2D-1" vertex="1">
                    <mxGeometry x="160" y="240" width="20" height="20" as="geometry"/>
                </mxCell>
                <mxCell id="uo7kZjVzECRxsCQxjz2D-28" value="&lt;h2&gt;-&lt;/h2&gt;" style="text;strokeColor=none;align=center;fillColor=none;html=1;verticalAlign=middle;whiteSpace=wrap;rounded=0;" parent="uo7kZjVzECRxsCQxjz2D-1" vertex="1">
                    <mxGeometry x="160" y="140" width="20" height="20" as="geometry"/>
                </mxCell>
                <mxCell id="uo7kZjVzECRxsCQxjz2D-29" value="&lt;h2&gt;+&lt;/h2&gt;" style="text;strokeColor=none;align=center;fillColor=none;html=1;verticalAlign=middle;whiteSpace=wrap;rounded=0;" parent="uo7kZjVzECRxsCQxjz2D-1" vertex="1">
                    <mxGeometry x="160" y="60" width="20" height="20" as="geometry"/>
                </mxCell>
                <mxCell id="uo7kZjVzECRxsCQxjz2D-30" value="&lt;h2&gt;-&lt;/h2&gt;" style="text;strokeColor=none;align=center;fillColor=none;html=1;verticalAlign=middle;whiteSpace=wrap;rounded=0;" parent="uo7kZjVzECRxsCQxjz2D-1" vertex="1">
                    <mxGeometry x="160" y="320" width="20" height="20" as="geometry"/>
                </mxCell>
                <mxCell id="uo7kZjVzECRxsCQxjz2D-31" value="&lt;h2&gt;+&lt;/h2&gt;" style="text;strokeColor=none;align=center;fillColor=none;html=1;verticalAlign=middle;whiteSpace=wrap;rounded=0;" parent="uo7kZjVzECRxsCQxjz2D-1" vertex="1">
                    <mxGeometry x="30" y="240" width="20" height="20" as="geometry"/>
                </mxCell>
                <mxCell id="uo7kZjVzECRxsCQxjz2D-32" value="&lt;h2&gt;-&lt;/h2&gt;" style="text;strokeColor=none;align=center;fillColor=none;html=1;verticalAlign=middle;whiteSpace=wrap;rounded=0;" parent="uo7kZjVzECRxsCQxjz2D-1" vertex="1">
                    <mxGeometry x="30" y="320" width="20" height="20" as="geometry"/>
                </mxCell>
                <mxCell id="uo7kZjVzECRxsCQxjz2D-33" value="&lt;h2&gt;+&lt;/h2&gt;" style="text;strokeColor=none;align=center;fillColor=none;html=1;verticalAlign=middle;whiteSpace=wrap;rounded=0;" parent="uo7kZjVzECRxsCQxjz2D-1" vertex="1">
                    <mxGeometry x="30" y="540" width="20" height="20" as="geometry"/>
                </mxCell>
                <mxCell id="uo7kZjVzECRxsCQxjz2D-34" value="&lt;h2&gt;-&lt;/h2&gt;" style="text;strokeColor=none;align=center;fillColor=none;html=1;verticalAlign=middle;whiteSpace=wrap;rounded=0;" parent="uo7kZjVzECRxsCQxjz2D-1" vertex="1">
                    <mxGeometry x="30" y="460" width="20" height="20" as="geometry"/>
                </mxCell>
                <mxCell id="uo7kZjVzECRxsCQxjz2D-35" value="&lt;h2&gt;+&lt;/h2&gt;" style="text;strokeColor=none;align=center;fillColor=none;html=1;verticalAlign=middle;whiteSpace=wrap;rounded=0;" parent="uo7kZjVzECRxsCQxjz2D-1" vertex="1">
                    <mxGeometry x="160" y="540" width="20" height="20" as="geometry"/>
                </mxCell>
                <mxCell id="uo7kZjVzECRxsCQxjz2D-36" value="&lt;h2&gt;-&lt;/h2&gt;" style="text;strokeColor=none;align=center;fillColor=none;html=1;verticalAlign=middle;whiteSpace=wrap;rounded=0;" parent="uo7kZjVzECRxsCQxjz2D-1" vertex="1">
                    <mxGeometry x="160" y="460" width="20" height="20" as="geometry"/>
                </mxCell>
                <mxCell id="uo7kZjVzECRxsCQxjz2D-37" value="&lt;h2&gt;+&lt;/h2&gt;" style="text;strokeColor=none;align=center;fillColor=none;html=1;verticalAlign=middle;whiteSpace=wrap;rounded=0;" parent="uo7kZjVzECRxsCQxjz2D-1" vertex="1">
                    <mxGeometry x="160" y="720" width="20" height="20" as="geometry"/>
                </mxCell>
                <mxCell id="uo7kZjVzECRxsCQxjz2D-38" value="&lt;h2&gt;-&lt;/h2&gt;" style="text;strokeColor=none;align=center;fillColor=none;html=1;verticalAlign=middle;whiteSpace=wrap;rounded=0;" parent="uo7kZjVzECRxsCQxjz2D-1" vertex="1">
                    <mxGeometry x="160" y="640" width="20" height="20" as="geometry"/>
                </mxCell>
                <mxCell id="uo7kZjVzECRxsCQxjz2D-39" value="&lt;h1&gt;G&lt;/h1&gt;" style="text;strokeColor=none;align=center;fillColor=none;html=1;verticalAlign=middle;whiteSpace=wrap;rounded=0;" parent="uo7kZjVzECRxsCQxjz2D-1" vertex="1">
                    <mxGeometry x="-210" y="465.44999999999993" width="60" height="30" as="geometry"/>
                </mxCell>
                <mxCell id="uo7kZjVzECRxsCQxjz2D-40" value="&lt;p&gt;&lt;font style=&quot;font-size: 20px;&quot;&gt;V&lt;sub&gt;A-NA&lt;/sub&gt;&lt;/font&gt;&lt;/p&gt;" style="verticalLabelPosition=middle;shadow=0;dashed=0;align=center;html=1;verticalAlign=middle;strokeWidth=1;shape=ellipse;aspect=fixed;fontSize=50;movableLabel=1;" parent="uo7kZjVzECRxsCQxjz2D-1" vertex="1">
                    <mxGeometry x="650" y="154" width="60" height="60" as="geometry">
                        <mxPoint y="-13" as="offset"/>
                    </mxGeometry>
                </mxCell>
                <mxCell id="uo7kZjVzECRxsCQxjz2D-41" value="&lt;h2&gt;+&lt;/h2&gt;" style="text;strokeColor=none;align=center;fillColor=none;html=1;verticalAlign=middle;whiteSpace=wrap;rounded=0;" parent="uo7kZjVzECRxsCQxjz2D-1" vertex="1">
                    <mxGeometry x="510" y="70" width="20" height="20" as="geometry"/>
                </mxCell>
                <mxCell id="uo7kZjVzECRxsCQxjz2D-42" value="&lt;h2&gt;-&lt;/h2&gt;" style="text;strokeColor=none;align=center;fillColor=none;html=1;verticalAlign=middle;whiteSpace=wrap;rounded=0;" parent="uo7kZjVzECRxsCQxjz2D-1" vertex="1">
                    <mxGeometry x="630" y="280" width="20" height="20" as="geometry"/>
                </mxCell>
                <mxCell id="uo7kZjVzECRxsCQxjz2D-43" value="&lt;h2&gt;+&lt;/h2&gt;" style="text;strokeColor=none;align=center;fillColor=none;html=1;verticalAlign=middle;whiteSpace=wrap;rounded=0;" parent="uo7kZjVzECRxsCQxjz2D-1" vertex="1">
                    <mxGeometry x="510" y="710" width="20" height="20" as="geometry"/>
                </mxCell>
                <mxCell id="uo7kZjVzECRxsCQxjz2D-44" value="&lt;h2&gt;-&lt;/h2&gt;" style="text;strokeColor=none;align=center;fillColor=none;html=1;verticalAlign=middle;whiteSpace=wrap;rounded=0;" parent="uo7kZjVzECRxsCQxjz2D-1" vertex="1">
                    <mxGeometry x="630" y="498.55" width="20" height="20" as="geometry"/>
                </mxCell>
                <mxCell id="uo7kZjVzECRxsCQxjz2D-45" style="edgeStyle=orthogonalEdgeStyle;rounded=0;orthogonalLoop=1;jettySize=auto;html=1;entryX=0;entryY=1;entryDx=0;entryDy=0;entryPerimeter=0;dashed=1;" parent="uo7kZjVzECRxsCQxjz2D-1" source="uo7kZjVzECRxsCQxjz2D-40" target="uo7kZjVzECRxsCQxjz2D-17" edge="1">
                    <mxGeometry relative="1" as="geometry">
                        <Array as="points">
                            <mxPoint x="680" y="40"/>
                            <mxPoint x="485" y="40"/>
                        </Array>
                    </mxGeometry>
                </mxCell>
                <mxCell id="uo7kZjVzECRxsCQxjz2D-46" style="edgeStyle=orthogonalEdgeStyle;rounded=0;orthogonalLoop=1;jettySize=auto;html=1;exitX=0.5;exitY=1;exitDx=0;exitDy=0;dashed=1;" parent="uo7kZjVzECRxsCQxjz2D-1" source="uo7kZjVzECRxsCQxjz2D-40" edge="1">
                    <mxGeometry relative="1" as="geometry">
                        <mxPoint x="660" y="360" as="targetPoint"/>
                        <Array as="points">
                            <mxPoint x="680" y="360"/>
                        </Array>
                    </mxGeometry>
                </mxCell>
                <mxCell id="uo7kZjVzECRxsCQxjz2D-47" style="edgeStyle=orthogonalEdgeStyle;rounded=0;orthogonalLoop=1;jettySize=auto;html=1;exitX=0.5;exitY=0;exitDx=0;exitDy=0;entryX=0;entryY=1;entryDx=0;entryDy=0;entryPerimeter=0;dashed=1;" parent="uo7kZjVzECRxsCQxjz2D-1" source="uo7kZjVzECRxsCQxjz2D-51" target="uo7kZjVzECRxsCQxjz2D-17" edge="1">
                    <mxGeometry relative="1" as="geometry">
                        <mxPoint x="760" y="370" as="sourcePoint"/>
                        <Array as="points">
                            <mxPoint x="840" y="39"/>
                        </Array>
                    </mxGeometry>
                </mxCell>
                <mxCell id="uo7kZjVzECRxsCQxjz2D-48" style="edgeStyle=orthogonalEdgeStyle;rounded=0;orthogonalLoop=1;jettySize=auto;html=1;exitX=0.5;exitY=1;exitDx=0;exitDy=0;entryX=1;entryY=1;entryDx=0;entryDy=0;entryPerimeter=0;dashed=1;" parent="uo7kZjVzECRxsCQxjz2D-1" source="uo7kZjVzECRxsCQxjz2D-51" target="uo7kZjVzECRxsCQxjz2D-5" edge="1">
                    <mxGeometry relative="1" as="geometry">
                        <mxPoint x="760" y="430" as="sourcePoint"/>
                        <Array as="points">
                            <mxPoint x="840" y="760"/>
                        </Array>
                    </mxGeometry>
                </mxCell>
                <mxCell id="uo7kZjVzECRxsCQxjz2D-49" style="edgeStyle=orthogonalEdgeStyle;rounded=0;orthogonalLoop=1;jettySize=auto;html=1;exitX=0.5;exitY=1;exitDx=0;exitDy=0;dashed=1;" parent="uo7kZjVzECRxsCQxjz2D-1" edge="1">
                    <mxGeometry relative="1" as="geometry">
                        <mxPoint x="-149.57142857142844" y="400" as="targetPoint"/>
                        <mxPoint x="-150" y="220" as="sourcePoint"/>
                        <Array as="points">
                            <mxPoint x="-150" y="310"/>
                            <mxPoint x="-150" y="310"/>
                        </Array>
                    </mxGeometry>
                </mxCell>
                <mxCell id="uo7kZjVzECRxsCQxjz2D-50" style="edgeStyle=orthogonalEdgeStyle;rounded=0;orthogonalLoop=1;jettySize=auto;html=1;exitX=0.5;exitY=0;exitDx=0;exitDy=0;entryX=0;entryY=1;entryDx=0;entryDy=0;entryPerimeter=0;dashed=1;" parent="uo7kZjVzECRxsCQxjz2D-1" target="uo7kZjVzECRxsCQxjz2D-17" edge="1">
                    <mxGeometry relative="1" as="geometry">
                        <mxPoint x="-150" y="160" as="sourcePoint"/>
                        <Array as="points">
                            <mxPoint x="-150" y="-40"/>
                            <mxPoint x="485" y="-40"/>
                        </Array>
                    </mxGeometry>
                </mxCell>
                <mxCell id="uo7kZjVzECRxsCQxjz2D-51" value="&lt;p&gt;&lt;font style=&quot;font-size: 20px;&quot;&gt;V&lt;sub&gt;A-B&lt;/sub&gt;&lt;/font&gt;&lt;/p&gt;" style="verticalLabelPosition=middle;shadow=0;dashed=0;align=center;html=1;verticalAlign=middle;strokeWidth=1;shape=ellipse;aspect=fixed;fontSize=50;movableLabel=1;" parent="uo7kZjVzECRxsCQxjz2D-1" vertex="1">
                    <mxGeometry x="810" y="370" width="60" height="60" as="geometry">
                        <mxPoint y="-13" as="offset"/>
                    </mxGeometry>
                </mxCell>
                <mxCell id="uo7kZjVzECRxsCQxjz2D-52" value="&lt;p&gt;&lt;font style=&quot;font-size: 20px;&quot;&gt;V&lt;sub&gt;A-G&lt;/sub&gt;&lt;/font&gt;&lt;/p&gt;" style="verticalLabelPosition=middle;shadow=0;dashed=0;align=center;html=1;verticalAlign=middle;strokeWidth=1;shape=ellipse;aspect=fixed;fontSize=50;movableLabel=1;" parent="uo7kZjVzECRxsCQxjz2D-1" vertex="1">
                    <mxGeometry x="-180" y="160" width="60" height="60" as="geometry">
                        <mxPoint y="-13" as="offset"/>
                    </mxGeometry>
                </mxCell>
                <mxCell id="uo7kZjVzECRxsCQxjz2D-53" value="&lt;h2&gt;+&lt;/h2&gt;" style="text;strokeColor=none;align=center;fillColor=none;html=1;verticalAlign=middle;whiteSpace=wrap;rounded=0;" parent="uo7kZjVzECRxsCQxjz2D-1" vertex="1">
                    <mxGeometry x="660" y="134" width="20" height="20" as="geometry"/>
                </mxCell>
                <mxCell id="uo7kZjVzECRxsCQxjz2D-54" value="&lt;h2&gt;-&lt;/h2&gt;" style="text;strokeColor=none;align=center;fillColor=none;html=1;verticalAlign=middle;whiteSpace=wrap;rounded=0;" parent="uo7kZjVzECRxsCQxjz2D-1" vertex="1">
                    <mxGeometry x="660" y="214" width="20" height="20" as="geometry"/>
                </mxCell>
                <mxCell id="uo7kZjVzECRxsCQxjz2D-55" value="&lt;h2&gt;-&lt;/h2&gt;" style="text;strokeColor=none;align=center;fillColor=none;html=1;verticalAlign=middle;whiteSpace=wrap;rounded=0;" parent="uo7kZjVzECRxsCQxjz2D-1" vertex="1">
                    <mxGeometry x="820" y="430" width="20" height="20" as="geometry"/>
                </mxCell>
                <mxCell id="uo7kZjVzECRxsCQxjz2D-56" value="&lt;h2&gt;-&lt;/h2&gt;" style="text;strokeColor=none;align=center;fillColor=none;html=1;verticalAlign=middle;whiteSpace=wrap;rounded=0;" parent="uo7kZjVzECRxsCQxjz2D-1" vertex="1">
                    <mxGeometry x="-170" y="220" width="20" height="20" as="geometry"/>
                </mxCell>
                <mxCell id="uo7kZjVzECRxsCQxjz2D-57" value="&lt;h2&gt;+&lt;/h2&gt;" style="text;strokeColor=none;align=center;fillColor=none;html=1;verticalAlign=middle;whiteSpace=wrap;rounded=0;" parent="uo7kZjVzECRxsCQxjz2D-1" vertex="1">
                    <mxGeometry x="-170" y="140" width="20" height="20" as="geometry"/>
                </mxCell>
                <mxCell id="uo7kZjVzECRxsCQxjz2D-58" value="&lt;h2&gt;+&lt;/h2&gt;" style="text;strokeColor=none;align=center;fillColor=none;html=1;verticalAlign=middle;whiteSpace=wrap;rounded=0;" parent="uo7kZjVzECRxsCQxjz2D-1" vertex="1">
                    <mxGeometry x="820" y="350" width="20" height="20" as="geometry"/>
                </mxCell>
            </root>
        </mxGraphModel>
    </diagram>
    <diagram name="KVLs - With Ground" id="FqaKVk2w3Z5sexFVMv2A">
        <mxGraphModel dx="1891" dy="1738" grid="1" gridSize="10" guides="1" tooltips="1" connect="1" arrows="1" fold="1" page="1" pageScale="1" pageWidth="850" pageHeight="1100" math="0" shadow="0">
            <root>
                <mxCell id="HNQAKbk4LTMubjVHOLjh-0"/>
                <mxCell id="HNQAKbk4LTMubjVHOLjh-1" parent="HNQAKbk4LTMubjVHOLjh-0"/>
                <mxCell id="HNQAKbk4LTMubjVHOLjh-2" value="&lt;h1&gt;X&lt;/h1&gt;" style="text;strokeColor=none;align=center;fillColor=none;html=1;verticalAlign=middle;whiteSpace=wrap;rounded=0;fontColor=#FF3333;" parent="HNQAKbk4LTMubjVHOLjh-1" vertex="1">
                    <mxGeometry x="30" y="-30" width="20" height="20" as="geometry"/>
                </mxCell>
                <mxCell id="HNQAKbk4LTMubjVHOLjh-3" value="" style="edgeStyle=orthogonalEdgeStyle;orthogonalLoop=1;jettySize=auto;html=1;rounded=0;exitX=0;exitY=0.5;exitDx=0;exitDy=0;strokeColor=#FF0000;strokeWidth=2;" parent="HNQAKbk4LTMubjVHOLjh-1" source="HNQAKbk4LTMubjVHOLjh-2" edge="1">
                    <mxGeometry width="80" relative="1" as="geometry">
                        <mxPoint x="-80" y="-31.110000000000014" as="sourcePoint"/>
                        <mxPoint x="60" y="-20" as="targetPoint"/>
                        <Array as="points">
                            <mxPoint x="-110" y="-20"/>
                            <mxPoint x="-110" y="380"/>
                            <mxPoint x="70" y="380"/>
                            <mxPoint x="70" y="220"/>
                            <mxPoint x="140" y="220"/>
                            <mxPoint x="140" y="30"/>
                            <mxPoint x="470" y="30"/>
                            <mxPoint x="470" y="-20"/>
                        </Array>
                    </mxGeometry>
                </mxCell>
                <mxCell id="HNQAKbk4LTMubjVHOLjh-4" value="" style="edgeStyle=orthogonalEdgeStyle;orthogonalLoop=1;jettySize=auto;html=1;rounded=0;exitX=0.473;exitY=1.099;exitDx=0;exitDy=0;exitPerimeter=0;strokeColor=#3333FF;strokeWidth=2;" parent="HNQAKbk4LTMubjVHOLjh-1" source="HNQAKbk4LTMubjVHOLjh-64" edge="1">
                    <mxGeometry width="80" relative="1" as="geometry">
                        <mxPoint x="720" y="140" as="sourcePoint"/>
                        <mxPoint x="720" y="90" as="targetPoint"/>
                        <Array as="points">
                            <mxPoint x="720" y="340"/>
                            <mxPoint x="270" y="340"/>
                            <mxPoint x="270" y="50"/>
                            <mxPoint x="720" y="50"/>
                        </Array>
                    </mxGeometry>
                </mxCell>
                <mxCell id="HNQAKbk4LTMubjVHOLjh-5" value="&lt;h1&gt;X&lt;/h1&gt;" style="text;strokeColor=none;align=center;fillColor=none;html=1;verticalAlign=middle;whiteSpace=wrap;rounded=0;fontColor=#33FF33;" parent="HNQAKbk4LTMubjVHOLjh-1" vertex="1">
                    <mxGeometry x="790" y="170" width="20" height="20" as="geometry"/>
                </mxCell>
                <mxCell id="HNQAKbk4LTMubjVHOLjh-6" value="" style="edgeStyle=orthogonalEdgeStyle;orthogonalLoop=1;jettySize=auto;html=1;rounded=0;strokeColor=#33FF33;strokeWidth=2;" parent="HNQAKbk4LTMubjVHOLjh-1" source="HNQAKbk4LTMubjVHOLjh-5" edge="1">
                    <mxGeometry width="80" relative="1" as="geometry">
                        <mxPoint x="700" y="240" as="sourcePoint"/>
                        <mxPoint x="800" y="150" as="targetPoint"/>
                        <Array as="points">
                            <mxPoint x="800" y="750"/>
                            <mxPoint x="140" y="750"/>
                            <mxPoint x="140" y="590"/>
                            <mxPoint x="80" y="590"/>
                            <mxPoint x="80" y="180"/>
                            <mxPoint x="120" y="180"/>
                            <mxPoint x="120" y="20"/>
                            <mxPoint x="800" y="20"/>
                        </Array>
                    </mxGeometry>
                </mxCell>
                <mxCell id="ryS1XHnrqk2cpZAlnSgt-0" style="edgeStyle=orthogonalEdgeStyle;rounded=0;orthogonalLoop=1;jettySize=auto;html=1;endArrow=none;endFill=0;strokeWidth=6;" parent="HNQAKbk4LTMubjVHOLjh-1" edge="1">
                    <mxGeometry relative="1" as="geometry">
                        <mxPoint x="50" y="400" as="targetPoint"/>
                        <mxPoint x="180" y="440" as="sourcePoint"/>
                        <Array as="points">
                            <mxPoint x="180" y="400"/>
                        </Array>
                    </mxGeometry>
                </mxCell>
                <mxCell id="HNQAKbk4LTMubjVHOLjh-7" value="&lt;h1&gt;&lt;br&gt;&lt;/h1&gt;" style="pointerEvents=1;verticalLabelPosition=bottom;shadow=0;dashed=0;align=center;html=1;verticalAlign=top;shape=mxgraph.electrical.signal_sources.source;aspect=fixed;points=[[0.5,0,0],[1,0.5,0],[0.5,1,0],[0,0.5,0]];elSignalType=ac;strokeWidth=2;" parent="HNQAKbk4LTMubjVHOLjh-1" vertex="1">
                    <mxGeometry x="150" y="479.99999999999994" width="60" height="60" as="geometry"/>
                </mxCell>
                <mxCell id="HNQAKbk4LTMubjVHOLjh-8" value="" style="pointerEvents=1;verticalLabelPosition=bottom;shadow=0;dashed=0;align=center;html=1;verticalAlign=top;shape=mxgraph.electrical.signal_sources.source;aspect=fixed;points=[[0.5,0,0],[1,0.5,0],[0.5,1,0],[0,0.5,0]];elSignalType=ac;strokeWidth=2;" parent="HNQAKbk4LTMubjVHOLjh-1" vertex="1">
                    <mxGeometry x="150" y="660" width="60" height="60" as="geometry"/>
                </mxCell>
                <mxCell id="HNQAKbk4LTMubjVHOLjh-9" style="edgeStyle=orthogonalEdgeStyle;rounded=0;orthogonalLoop=1;jettySize=auto;html=1;exitX=0.5;exitY=0;exitDx=0;exitDy=0;exitPerimeter=0;entryX=0.5;entryY=1;entryDx=0;entryDy=0;entryPerimeter=0;endArrow=none;endFill=0;strokeWidth=2;" parent="HNQAKbk4LTMubjVHOLjh-1" source="HNQAKbk4LTMubjVHOLjh-8" target="HNQAKbk4LTMubjVHOLjh-7" edge="1">
                    <mxGeometry relative="1" as="geometry">
                        <Array as="points">
                            <mxPoint x="180" y="629.55"/>
                        </Array>
                    </mxGeometry>
                </mxCell>
                <mxCell id="HNQAKbk4LTMubjVHOLjh-10" value="" style="pointerEvents=1;verticalLabelPosition=bottom;shadow=0;dashed=0;align=center;html=1;verticalAlign=top;shape=mxgraph.electrical.inductors.inductor_3;rotation=-240;strokeWidth=2;" parent="HNQAKbk4LTMubjVHOLjh-1" vertex="1">
                    <mxGeometry x="410" y="601.55" width="350" height="28" as="geometry"/>
                </mxCell>
                <mxCell id="HNQAKbk4LTMubjVHOLjh-11" style="edgeStyle=orthogonalEdgeStyle;rounded=0;orthogonalLoop=1;jettySize=auto;html=1;exitX=0.5;exitY=0;exitDx=0;exitDy=0;exitPerimeter=0;entryX=0;entryY=1;entryDx=0;entryDy=0;entryPerimeter=0;endArrow=none;endFill=0;strokeWidth=2;" parent="HNQAKbk4LTMubjVHOLjh-1" source="HNQAKbk4LTMubjVHOLjh-7" target="HNQAKbk4LTMubjVHOLjh-10" edge="1">
                    <mxGeometry relative="1" as="geometry">
                        <Array as="points">
                            <mxPoint x="180" y="440"/>
                            <mxPoint x="660" y="440"/>
                        </Array>
                    </mxGeometry>
                </mxCell>
                <mxCell id="HNQAKbk4LTMubjVHOLjh-12" style="edgeStyle=orthogonalEdgeStyle;rounded=0;orthogonalLoop=1;jettySize=auto;html=1;exitX=0.5;exitY=1;exitDx=0;exitDy=0;exitPerimeter=0;entryX=1;entryY=1;entryDx=0;entryDy=0;entryPerimeter=0;endArrow=none;endFill=0;strokeWidth=2;" parent="HNQAKbk4LTMubjVHOLjh-1" source="HNQAKbk4LTMubjVHOLjh-8" target="HNQAKbk4LTMubjVHOLjh-10" edge="1">
                    <mxGeometry relative="1" as="geometry">
                        <mxPoint x="185" y="713.55" as="sourcePoint"/>
                        <mxPoint x="665.3756443470179" y="772.1044456622768" as="targetPoint"/>
                        <Array as="points">
                            <mxPoint x="180" y="760"/>
                            <mxPoint x="485" y="760"/>
                        </Array>
                    </mxGeometry>
                </mxCell>
                <mxCell id="HNQAKbk4LTMubjVHOLjh-13" style="edgeStyle=orthogonalEdgeStyle;rounded=0;orthogonalLoop=1;jettySize=auto;html=1;exitX=1;exitY=0.5;exitDx=0;exitDy=0;exitPerimeter=0;endArrow=none;endFill=0;strokeWidth=2;" parent="HNQAKbk4LTMubjVHOLjh-1" source="HNQAKbk4LTMubjVHOLjh-14" edge="1">
                    <mxGeometry relative="1" as="geometry">
                        <mxPoint x="180" y="600" as="targetPoint"/>
                        <Array as="points">
                            <mxPoint x="50" y="600"/>
                        </Array>
                    </mxGeometry>
                </mxCell>
                <mxCell id="HNQAKbk4LTMubjVHOLjh-14" value="" style="pointerEvents=1;verticalLabelPosition=bottom;shadow=0;dashed=0;align=center;html=1;verticalAlign=top;shape=mxgraph.electrical.resistors.resistor_2;rotation=90;strokeWidth=2;" parent="HNQAKbk4LTMubjVHOLjh-1" vertex="1">
                    <mxGeometry y="499.54999999999995" width="100" height="20" as="geometry"/>
                </mxCell>
                <mxCell id="HNQAKbk4LTMubjVHOLjh-15" style="edgeStyle=orthogonalEdgeStyle;rounded=0;orthogonalLoop=1;jettySize=auto;html=1;exitX=0.62;exitY=0;exitDx=0;exitDy=0;exitPerimeter=0;endArrow=none;endFill=0;strokeWidth=2;" parent="HNQAKbk4LTMubjVHOLjh-1" source="HNQAKbk4LTMubjVHOLjh-16" edge="1">
                    <mxGeometry relative="1" as="geometry">
                        <mxPoint x="50" y="400" as="targetPoint"/>
                        <Array as="points">
                            <mxPoint x="-150" y="400"/>
                        </Array>
                    </mxGeometry>
                </mxCell>
                <mxCell id="HNQAKbk4LTMubjVHOLjh-16" value="" style="pointerEvents=1;verticalLabelPosition=bottom;shadow=0;dashed=0;align=center;html=1;verticalAlign=top;shape=mxgraph.electrical.miscellaneous.chassis;strokeWidth=2;" parent="HNQAKbk4LTMubjVHOLjh-1" vertex="1">
                    <mxGeometry x="-190" y="492.99999999999994" width="65" height="32" as="geometry"/>
                </mxCell>
                <mxCell id="HNQAKbk4LTMubjVHOLjh-17" value="&lt;h1&gt;V&lt;sub&gt;DB&lt;/sub&gt;&lt;/h1&gt;" style="text;strokeColor=none;align=center;fillColor=none;html=1;verticalAlign=middle;whiteSpace=wrap;rounded=0;" parent="HNQAKbk4LTMubjVHOLjh-1" vertex="1">
                    <mxGeometry x="210" y="494.99999999999994" width="60" height="30" as="geometry"/>
                </mxCell>
                <mxCell id="HNQAKbk4LTMubjVHOLjh-18" value="&lt;h1&gt;V&lt;sub&gt;DB&lt;/sub&gt;&lt;/h1&gt;" style="text;strokeColor=none;align=center;fillColor=none;html=1;verticalAlign=middle;whiteSpace=wrap;rounded=0;" parent="HNQAKbk4LTMubjVHOLjh-1" vertex="1">
                    <mxGeometry x="210" y="675" width="60" height="30" as="geometry"/>
                </mxCell>
                <mxCell id="HNQAKbk4LTMubjVHOLjh-19" value="&lt;h1&gt;&lt;br&gt;&lt;/h1&gt;" style="pointerEvents=1;verticalLabelPosition=bottom;shadow=0;dashed=0;align=center;html=1;verticalAlign=top;shape=mxgraph.electrical.signal_sources.source;aspect=fixed;points=[[0.5,0,0],[1,0.5,0],[0.5,1,0],[0,0.5,0]];elSignalType=ac;strokeWidth=2;" parent="HNQAKbk4LTMubjVHOLjh-1" vertex="1">
                    <mxGeometry x="150" y="80" width="60" height="60" as="geometry"/>
                </mxCell>
                <mxCell id="HNQAKbk4LTMubjVHOLjh-20" value="" style="pointerEvents=1;verticalLabelPosition=bottom;shadow=0;dashed=0;align=center;html=1;verticalAlign=top;shape=mxgraph.electrical.signal_sources.source;aspect=fixed;points=[[0.5,0,0],[1,0.5,0],[0.5,1,0],[0,0.5,0]];elSignalType=ac;strokeWidth=2;" parent="HNQAKbk4LTMubjVHOLjh-1" vertex="1">
                    <mxGeometry x="150" y="260" width="60" height="60" as="geometry"/>
                </mxCell>
                <mxCell id="HNQAKbk4LTMubjVHOLjh-21" style="edgeStyle=orthogonalEdgeStyle;rounded=0;orthogonalLoop=1;jettySize=auto;html=1;exitX=0.5;exitY=0;exitDx=0;exitDy=0;exitPerimeter=0;entryX=0.5;entryY=1;entryDx=0;entryDy=0;entryPerimeter=0;endArrow=none;endFill=0;strokeWidth=2;" parent="HNQAKbk4LTMubjVHOLjh-1" source="HNQAKbk4LTMubjVHOLjh-20" target="HNQAKbk4LTMubjVHOLjh-19" edge="1">
                    <mxGeometry relative="1" as="geometry">
                        <Array as="points">
                            <mxPoint x="180" y="200"/>
                        </Array>
                    </mxGeometry>
                </mxCell>
                <mxCell id="HNQAKbk4LTMubjVHOLjh-22" value="" style="pointerEvents=1;verticalLabelPosition=bottom;shadow=0;dashed=0;align=center;html=1;verticalAlign=top;shape=mxgraph.electrical.inductors.inductor_3;rotation=60;strokeWidth=2;" parent="HNQAKbk4LTMubjVHOLjh-1" vertex="1">
                    <mxGeometry x="410" y="170" width="350" height="28" as="geometry"/>
                </mxCell>
                <mxCell id="HNQAKbk4LTMubjVHOLjh-23" style="edgeStyle=orthogonalEdgeStyle;rounded=0;orthogonalLoop=1;jettySize=auto;html=1;exitX=0.5;exitY=0;exitDx=0;exitDy=0;exitPerimeter=0;entryX=0;entryY=1;entryDx=0;entryDy=0;entryPerimeter=0;endArrow=none;endFill=0;strokeWidth=2;" parent="HNQAKbk4LTMubjVHOLjh-1" source="HNQAKbk4LTMubjVHOLjh-19" target="HNQAKbk4LTMubjVHOLjh-22" edge="1">
                    <mxGeometry relative="1" as="geometry">
                        <Array as="points">
                            <mxPoint x="180" y="40"/>
                            <mxPoint x="348" y="40"/>
                        </Array>
                    </mxGeometry>
                </mxCell>
                <mxCell id="HNQAKbk4LTMubjVHOLjh-24" style="edgeStyle=orthogonalEdgeStyle;rounded=0;orthogonalLoop=1;jettySize=auto;html=1;exitX=0.5;exitY=1;exitDx=0;exitDy=0;exitPerimeter=0;entryX=1;entryY=1;entryDx=0;entryDy=0;entryPerimeter=0;endArrow=none;endFill=0;strokeWidth=2;" parent="HNQAKbk4LTMubjVHOLjh-1" source="HNQAKbk4LTMubjVHOLjh-20" target="HNQAKbk4LTMubjVHOLjh-22" edge="1">
                    <mxGeometry relative="1" as="geometry">
                        <mxPoint x="185" y="284" as="sourcePoint"/>
                        <mxPoint x="665.3756443470179" y="342.5544456622768" as="targetPoint"/>
                        <Array as="points">
                            <mxPoint x="180" y="360"/>
                            <mxPoint x="660" y="360"/>
                        </Array>
                    </mxGeometry>
                </mxCell>
                <mxCell id="HNQAKbk4LTMubjVHOLjh-25" style="edgeStyle=orthogonalEdgeStyle;rounded=0;orthogonalLoop=1;jettySize=auto;html=1;exitX=1;exitY=0.5;exitDx=0;exitDy=0;exitPerimeter=0;endArrow=none;endFill=0;strokeWidth=2;" parent="HNQAKbk4LTMubjVHOLjh-1" source="HNQAKbk4LTMubjVHOLjh-26" edge="1">
                    <mxGeometry relative="1" as="geometry">
                        <mxPoint x="180" y="199.9999999999999" as="targetPoint"/>
                        <Array as="points">
                            <mxPoint x="50" y="200"/>
                        </Array>
                    </mxGeometry>
                </mxCell>
                <mxCell id="HNQAKbk4LTMubjVHOLjh-26" value="" style="pointerEvents=1;verticalLabelPosition=bottom;shadow=0;dashed=0;align=center;html=1;verticalAlign=top;shape=mxgraph.electrical.resistors.resistor_2;rotation=-90;strokeWidth=2;" parent="HNQAKbk4LTMubjVHOLjh-1" vertex="1">
                    <mxGeometry y="280" width="100" height="20" as="geometry"/>
                </mxCell>
                <mxCell id="HNQAKbk4LTMubjVHOLjh-27" value="&lt;h1&gt;V&lt;sub&gt;DA&lt;/sub&gt;&lt;/h1&gt;" style="text;strokeColor=none;align=center;fillColor=none;html=1;verticalAlign=middle;whiteSpace=wrap;rounded=0;" parent="HNQAKbk4LTMubjVHOLjh-1" vertex="1">
                    <mxGeometry x="210" y="95" width="60" height="30" as="geometry"/>
                </mxCell>
                <mxCell id="HNQAKbk4LTMubjVHOLjh-28" value="&lt;h1&gt;V&lt;sub&gt;DA&lt;/sub&gt;&lt;/h1&gt;" style="text;strokeColor=none;align=center;fillColor=none;html=1;verticalAlign=middle;whiteSpace=wrap;rounded=0;" parent="HNQAKbk4LTMubjVHOLjh-1" vertex="1">
                    <mxGeometry x="210" y="275" width="60" height="30" as="geometry"/>
                </mxCell>
                <mxCell id="HNQAKbk4LTMubjVHOLjh-29" style="edgeStyle=orthogonalEdgeStyle;rounded=0;orthogonalLoop=1;jettySize=auto;html=1;exitX=0;exitY=0.5;exitDx=0;exitDy=0;exitPerimeter=0;entryX=0;entryY=0.5;entryDx=0;entryDy=0;entryPerimeter=0;endArrow=none;endFill=0;strokeWidth=2;" parent="HNQAKbk4LTMubjVHOLjh-1" source="HNQAKbk4LTMubjVHOLjh-14" target="HNQAKbk4LTMubjVHOLjh-26" edge="1">
                    <mxGeometry relative="1" as="geometry"/>
                </mxCell>
                <mxCell id="HNQAKbk4LTMubjVHOLjh-30" value="&lt;h1&gt;V&lt;sub&gt;RA&lt;/sub&gt;&lt;/h1&gt;" style="text;strokeColor=none;align=center;fillColor=none;html=1;verticalAlign=middle;whiteSpace=wrap;rounded=0;" parent="HNQAKbk4LTMubjVHOLjh-1" vertex="1">
                    <mxGeometry x="-20" y="275" width="60" height="30" as="geometry"/>
                </mxCell>
                <mxCell id="HNQAKbk4LTMubjVHOLjh-31" value="&lt;h1&gt;V&lt;sub&gt;RB&lt;/sub&gt;&lt;/h1&gt;" style="text;strokeColor=none;align=center;fillColor=none;html=1;verticalAlign=middle;whiteSpace=wrap;rounded=0;" parent="HNQAKbk4LTMubjVHOLjh-1" vertex="1">
                    <mxGeometry x="-20" y="499.54999999999995" width="60" height="30" as="geometry"/>
                </mxCell>
                <mxCell id="HNQAKbk4LTMubjVHOLjh-32" value="&lt;h2&gt;+&lt;/h2&gt;" style="text;strokeColor=none;align=center;fillColor=none;html=1;verticalAlign=middle;whiteSpace=wrap;rounded=0;" parent="HNQAKbk4LTMubjVHOLjh-1" vertex="1">
                    <mxGeometry x="160" y="240" width="20" height="20" as="geometry"/>
                </mxCell>
                <mxCell id="HNQAKbk4LTMubjVHOLjh-33" value="&lt;h2&gt;-&lt;/h2&gt;" style="text;strokeColor=none;align=center;fillColor=none;html=1;verticalAlign=middle;whiteSpace=wrap;rounded=0;" parent="HNQAKbk4LTMubjVHOLjh-1" vertex="1">
                    <mxGeometry x="160" y="140" width="20" height="20" as="geometry"/>
                </mxCell>
                <mxCell id="HNQAKbk4LTMubjVHOLjh-34" value="&lt;h2&gt;+&lt;/h2&gt;" style="text;strokeColor=none;align=center;fillColor=none;html=1;verticalAlign=middle;whiteSpace=wrap;rounded=0;" parent="HNQAKbk4LTMubjVHOLjh-1" vertex="1">
                    <mxGeometry x="160" y="60" width="20" height="20" as="geometry"/>
                </mxCell>
                <mxCell id="HNQAKbk4LTMubjVHOLjh-35" value="&lt;h2&gt;-&lt;/h2&gt;" style="text;strokeColor=none;align=center;fillColor=none;html=1;verticalAlign=middle;whiteSpace=wrap;rounded=0;" parent="HNQAKbk4LTMubjVHOLjh-1" vertex="1">
                    <mxGeometry x="160" y="320" width="20" height="20" as="geometry"/>
                </mxCell>
                <mxCell id="HNQAKbk4LTMubjVHOLjh-36" value="&lt;h2&gt;+&lt;/h2&gt;" style="text;strokeColor=none;align=center;fillColor=none;html=1;verticalAlign=middle;whiteSpace=wrap;rounded=0;" parent="HNQAKbk4LTMubjVHOLjh-1" vertex="1">
                    <mxGeometry x="30" y="240" width="20" height="20" as="geometry"/>
                </mxCell>
                <mxCell id="HNQAKbk4LTMubjVHOLjh-37" value="&lt;h2&gt;-&lt;/h2&gt;" style="text;strokeColor=none;align=center;fillColor=none;html=1;verticalAlign=middle;whiteSpace=wrap;rounded=0;" parent="HNQAKbk4LTMubjVHOLjh-1" vertex="1">
                    <mxGeometry x="30" y="320" width="20" height="20" as="geometry"/>
                </mxCell>
                <mxCell id="HNQAKbk4LTMubjVHOLjh-38" value="&lt;h2&gt;+&lt;/h2&gt;" style="text;strokeColor=none;align=center;fillColor=none;html=1;verticalAlign=middle;whiteSpace=wrap;rounded=0;" parent="HNQAKbk4LTMubjVHOLjh-1" vertex="1">
                    <mxGeometry x="30" y="540" width="20" height="20" as="geometry"/>
                </mxCell>
                <mxCell id="HNQAKbk4LTMubjVHOLjh-39" value="&lt;h2&gt;-&lt;/h2&gt;" style="text;strokeColor=none;align=center;fillColor=none;html=1;verticalAlign=middle;whiteSpace=wrap;rounded=0;" parent="HNQAKbk4LTMubjVHOLjh-1" vertex="1">
                    <mxGeometry x="30" y="460" width="20" height="20" as="geometry"/>
                </mxCell>
                <mxCell id="HNQAKbk4LTMubjVHOLjh-40" value="&lt;h2&gt;+&lt;/h2&gt;" style="text;strokeColor=none;align=center;fillColor=none;html=1;verticalAlign=middle;whiteSpace=wrap;rounded=0;" parent="HNQAKbk4LTMubjVHOLjh-1" vertex="1">
                    <mxGeometry x="160" y="540" width="20" height="20" as="geometry"/>
                </mxCell>
                <mxCell id="HNQAKbk4LTMubjVHOLjh-41" value="&lt;h2&gt;-&lt;/h2&gt;" style="text;strokeColor=none;align=center;fillColor=none;html=1;verticalAlign=middle;whiteSpace=wrap;rounded=0;" parent="HNQAKbk4LTMubjVHOLjh-1" vertex="1">
                    <mxGeometry x="160" y="460" width="20" height="20" as="geometry"/>
                </mxCell>
                <mxCell id="HNQAKbk4LTMubjVHOLjh-42" value="&lt;h2&gt;+&lt;/h2&gt;" style="text;strokeColor=none;align=center;fillColor=none;html=1;verticalAlign=middle;whiteSpace=wrap;rounded=0;" parent="HNQAKbk4LTMubjVHOLjh-1" vertex="1">
                    <mxGeometry x="160" y="720" width="20" height="20" as="geometry"/>
                </mxCell>
                <mxCell id="HNQAKbk4LTMubjVHOLjh-43" value="&lt;h2&gt;-&lt;/h2&gt;" style="text;strokeColor=none;align=center;fillColor=none;html=1;verticalAlign=middle;whiteSpace=wrap;rounded=0;" parent="HNQAKbk4LTMubjVHOLjh-1" vertex="1">
                    <mxGeometry x="160" y="640" width="20" height="20" as="geometry"/>
                </mxCell>
                <mxCell id="HNQAKbk4LTMubjVHOLjh-44" value="&lt;h1&gt;G&lt;/h1&gt;" style="text;strokeColor=none;align=center;fillColor=none;html=1;verticalAlign=middle;whiteSpace=wrap;rounded=0;" parent="HNQAKbk4LTMubjVHOLjh-1" vertex="1">
                    <mxGeometry x="-210" y="465.44999999999993" width="60" height="30" as="geometry"/>
                </mxCell>
                <mxCell id="HNQAKbk4LTMubjVHOLjh-45" value="&lt;p&gt;&lt;font style=&quot;font-size: 20px;&quot;&gt;V&lt;sub&gt;A-NA&lt;/sub&gt;&lt;/font&gt;&lt;/p&gt;" style="verticalLabelPosition=middle;shadow=0;dashed=0;align=center;html=1;verticalAlign=middle;strokeWidth=1;shape=ellipse;aspect=fixed;fontSize=50;movableLabel=1;" parent="HNQAKbk4LTMubjVHOLjh-1" vertex="1">
                    <mxGeometry x="650" y="154" width="60" height="60" as="geometry">
                        <mxPoint y="-13" as="offset"/>
                    </mxGeometry>
                </mxCell>
                <mxCell id="HNQAKbk4LTMubjVHOLjh-46" value="&lt;h2&gt;+&lt;/h2&gt;" style="text;strokeColor=none;align=center;fillColor=none;html=1;verticalAlign=middle;whiteSpace=wrap;rounded=0;" parent="HNQAKbk4LTMubjVHOLjh-1" vertex="1">
                    <mxGeometry x="510" y="70" width="20" height="20" as="geometry"/>
                </mxCell>
                <mxCell id="HNQAKbk4LTMubjVHOLjh-47" value="&lt;h2&gt;-&lt;/h2&gt;" style="text;strokeColor=none;align=center;fillColor=none;html=1;verticalAlign=middle;whiteSpace=wrap;rounded=0;" parent="HNQAKbk4LTMubjVHOLjh-1" vertex="1">
                    <mxGeometry x="630" y="280" width="20" height="20" as="geometry"/>
                </mxCell>
                <mxCell id="HNQAKbk4LTMubjVHOLjh-48" value="&lt;h2&gt;+&lt;/h2&gt;" style="text;strokeColor=none;align=center;fillColor=none;html=1;verticalAlign=middle;whiteSpace=wrap;rounded=0;" parent="HNQAKbk4LTMubjVHOLjh-1" vertex="1">
                    <mxGeometry x="510" y="710" width="20" height="20" as="geometry"/>
                </mxCell>
                <mxCell id="HNQAKbk4LTMubjVHOLjh-49" value="&lt;h2&gt;-&lt;/h2&gt;" style="text;strokeColor=none;align=center;fillColor=none;html=1;verticalAlign=middle;whiteSpace=wrap;rounded=0;" parent="HNQAKbk4LTMubjVHOLjh-1" vertex="1">
                    <mxGeometry x="630" y="498.55" width="20" height="20" as="geometry"/>
                </mxCell>
                <mxCell id="HNQAKbk4LTMubjVHOLjh-50" style="edgeStyle=orthogonalEdgeStyle;rounded=0;orthogonalLoop=1;jettySize=auto;html=1;entryX=0;entryY=1;entryDx=0;entryDy=0;entryPerimeter=0;dashed=1;" parent="HNQAKbk4LTMubjVHOLjh-1" source="HNQAKbk4LTMubjVHOLjh-45" target="HNQAKbk4LTMubjVHOLjh-22" edge="1">
                    <mxGeometry relative="1" as="geometry">
                        <Array as="points">
                            <mxPoint x="680" y="40"/>
                            <mxPoint x="485" y="40"/>
                        </Array>
                    </mxGeometry>
                </mxCell>
                <mxCell id="HNQAKbk4LTMubjVHOLjh-51" style="edgeStyle=orthogonalEdgeStyle;rounded=0;orthogonalLoop=1;jettySize=auto;html=1;exitX=0.5;exitY=1;exitDx=0;exitDy=0;dashed=1;" parent="HNQAKbk4LTMubjVHOLjh-1" source="HNQAKbk4LTMubjVHOLjh-45" edge="1">
                    <mxGeometry relative="1" as="geometry">
                        <mxPoint x="660" y="360" as="targetPoint"/>
                        <Array as="points">
                            <mxPoint x="680" y="360"/>
                        </Array>
                    </mxGeometry>
                </mxCell>
                <mxCell id="HNQAKbk4LTMubjVHOLjh-52" style="edgeStyle=orthogonalEdgeStyle;rounded=0;orthogonalLoop=1;jettySize=auto;html=1;exitX=0.5;exitY=0;exitDx=0;exitDy=0;entryX=0;entryY=1;entryDx=0;entryDy=0;entryPerimeter=0;dashed=1;" parent="HNQAKbk4LTMubjVHOLjh-1" source="HNQAKbk4LTMubjVHOLjh-56" target="HNQAKbk4LTMubjVHOLjh-22" edge="1">
                    <mxGeometry relative="1" as="geometry">
                        <mxPoint x="760" y="370" as="sourcePoint"/>
                        <Array as="points">
                            <mxPoint x="840" y="39"/>
                        </Array>
                    </mxGeometry>
                </mxCell>
                <mxCell id="HNQAKbk4LTMubjVHOLjh-53" style="edgeStyle=orthogonalEdgeStyle;rounded=0;orthogonalLoop=1;jettySize=auto;html=1;exitX=0.5;exitY=1;exitDx=0;exitDy=0;entryX=1;entryY=1;entryDx=0;entryDy=0;entryPerimeter=0;dashed=1;" parent="HNQAKbk4LTMubjVHOLjh-1" source="HNQAKbk4LTMubjVHOLjh-56" target="HNQAKbk4LTMubjVHOLjh-10" edge="1">
                    <mxGeometry relative="1" as="geometry">
                        <mxPoint x="760" y="430" as="sourcePoint"/>
                        <Array as="points">
                            <mxPoint x="840" y="760"/>
                        </Array>
                    </mxGeometry>
                </mxCell>
                <mxCell id="HNQAKbk4LTMubjVHOLjh-54" style="edgeStyle=orthogonalEdgeStyle;rounded=0;orthogonalLoop=1;jettySize=auto;html=1;exitX=0.5;exitY=1;exitDx=0;exitDy=0;dashed=1;" parent="HNQAKbk4LTMubjVHOLjh-1" edge="1">
                    <mxGeometry relative="1" as="geometry">
                        <mxPoint x="-149.57142857142844" y="400" as="targetPoint"/>
                        <mxPoint x="-150" y="220" as="sourcePoint"/>
                        <Array as="points">
                            <mxPoint x="-150" y="310"/>
                            <mxPoint x="-150" y="310"/>
                        </Array>
                    </mxGeometry>
                </mxCell>
                <mxCell id="HNQAKbk4LTMubjVHOLjh-55" style="edgeStyle=orthogonalEdgeStyle;rounded=0;orthogonalLoop=1;jettySize=auto;html=1;exitX=0.5;exitY=0;exitDx=0;exitDy=0;entryX=0;entryY=1;entryDx=0;entryDy=0;entryPerimeter=0;dashed=1;" parent="HNQAKbk4LTMubjVHOLjh-1" target="HNQAKbk4LTMubjVHOLjh-22" edge="1">
                    <mxGeometry relative="1" as="geometry">
                        <mxPoint x="-150" y="160" as="sourcePoint"/>
                        <Array as="points">
                            <mxPoint x="-150" y="-40"/>
                            <mxPoint x="485" y="-40"/>
                        </Array>
                    </mxGeometry>
                </mxCell>
                <mxCell id="HNQAKbk4LTMubjVHOLjh-56" value="&lt;p&gt;&lt;font style=&quot;font-size: 20px;&quot;&gt;V&lt;sub&gt;A-B&lt;/sub&gt;&lt;/font&gt;&lt;/p&gt;" style="verticalLabelPosition=middle;shadow=0;dashed=0;align=center;html=1;verticalAlign=middle;strokeWidth=1;shape=ellipse;aspect=fixed;fontSize=50;movableLabel=1;" parent="HNQAKbk4LTMubjVHOLjh-1" vertex="1">
                    <mxGeometry x="810" y="370" width="60" height="60" as="geometry">
                        <mxPoint y="-13" as="offset"/>
                    </mxGeometry>
                </mxCell>
                <mxCell id="HNQAKbk4LTMubjVHOLjh-57" value="&lt;p&gt;&lt;font style=&quot;font-size: 20px;&quot;&gt;V&lt;sub&gt;A-G&lt;/sub&gt;&lt;/font&gt;&lt;/p&gt;" style="verticalLabelPosition=middle;shadow=0;dashed=0;align=center;html=1;verticalAlign=middle;strokeWidth=1;shape=ellipse;aspect=fixed;fontSize=50;movableLabel=1;" parent="HNQAKbk4LTMubjVHOLjh-1" vertex="1">
                    <mxGeometry x="-180" y="160" width="60" height="60" as="geometry">
                        <mxPoint y="-13" as="offset"/>
                    </mxGeometry>
                </mxCell>
                <mxCell id="HNQAKbk4LTMubjVHOLjh-58" value="&lt;h2&gt;+&lt;/h2&gt;" style="text;strokeColor=none;align=center;fillColor=none;html=1;verticalAlign=middle;whiteSpace=wrap;rounded=0;" parent="HNQAKbk4LTMubjVHOLjh-1" vertex="1">
                    <mxGeometry x="660" y="134" width="20" height="20" as="geometry"/>
                </mxCell>
                <mxCell id="HNQAKbk4LTMubjVHOLjh-59" value="&lt;h2&gt;-&lt;/h2&gt;" style="text;strokeColor=none;align=center;fillColor=none;html=1;verticalAlign=middle;whiteSpace=wrap;rounded=0;" parent="HNQAKbk4LTMubjVHOLjh-1" vertex="1">
                    <mxGeometry x="660" y="214" width="20" height="20" as="geometry"/>
                </mxCell>
                <mxCell id="HNQAKbk4LTMubjVHOLjh-60" value="&lt;h2&gt;-&lt;/h2&gt;" style="text;strokeColor=none;align=center;fillColor=none;html=1;verticalAlign=middle;whiteSpace=wrap;rounded=0;" parent="HNQAKbk4LTMubjVHOLjh-1" vertex="1">
                    <mxGeometry x="820" y="430" width="20" height="20" as="geometry"/>
                </mxCell>
                <mxCell id="HNQAKbk4LTMubjVHOLjh-61" value="&lt;h2&gt;-&lt;/h2&gt;" style="text;strokeColor=none;align=center;fillColor=none;html=1;verticalAlign=middle;whiteSpace=wrap;rounded=0;" parent="HNQAKbk4LTMubjVHOLjh-1" vertex="1">
                    <mxGeometry x="-170" y="220" width="20" height="20" as="geometry"/>
                </mxCell>
                <mxCell id="HNQAKbk4LTMubjVHOLjh-62" value="&lt;h2&gt;+&lt;/h2&gt;" style="text;strokeColor=none;align=center;fillColor=none;html=1;verticalAlign=middle;whiteSpace=wrap;rounded=0;" parent="HNQAKbk4LTMubjVHOLjh-1" vertex="1">
                    <mxGeometry x="-170" y="140" width="20" height="20" as="geometry"/>
                </mxCell>
                <mxCell id="HNQAKbk4LTMubjVHOLjh-63" value="&lt;h2&gt;+&lt;/h2&gt;" style="text;strokeColor=none;align=center;fillColor=none;html=1;verticalAlign=middle;whiteSpace=wrap;rounded=0;" parent="HNQAKbk4LTMubjVHOLjh-1" vertex="1">
                    <mxGeometry x="820" y="350" width="20" height="20" as="geometry"/>
                </mxCell>
                <mxCell id="HNQAKbk4LTMubjVHOLjh-64" value="&lt;h1&gt;X&lt;/h1&gt;" style="text;strokeColor=none;align=center;fillColor=none;html=1;verticalAlign=middle;whiteSpace=wrap;rounded=0;fontColor=#3333FF;" parent="HNQAKbk4LTMubjVHOLjh-1" vertex="1">
                    <mxGeometry x="710" y="100" width="20" height="20" as="geometry"/>
                </mxCell>
                <mxCell id="Ui3cplVqnOd3bQJkflFq-0" value="&lt;h1&gt;X&lt;/h1&gt;" style="text;strokeColor=none;align=center;fillColor=none;html=1;verticalAlign=middle;whiteSpace=wrap;rounded=0;fontColor=#FF8000;" parent="HNQAKbk4LTMubjVHOLjh-1" vertex="1">
                    <mxGeometry x="130" y="410" width="20" height="20" as="geometry"/>
                </mxCell>
                <mxCell id="Ui3cplVqnOd3bQJkflFq-1" value="" style="edgeStyle=orthogonalEdgeStyle;orthogonalLoop=1;jettySize=auto;html=1;rounded=0;exitX=0;exitY=0.5;exitDx=0;exitDy=0;strokeColor=#FF8000;strokeWidth=2;" parent="HNQAKbk4LTMubjVHOLjh-1" source="Ui3cplVqnOd3bQJkflFq-0" edge="1">
                    <mxGeometry width="80" relative="1" as="geometry">
                        <mxPoint x="150" y="440" as="sourcePoint"/>
                        <mxPoint x="140" y="450" as="targetPoint"/>
                        <Array as="points">
                            <mxPoint x="70" y="420"/>
                            <mxPoint x="70" y="580"/>
                        </Array>
                    </mxGeometry>
                </mxCell>
            </root>
        </mxGraphModel>
    </diagram>
</mxfile>